<?xml version="1.0" encoding="utf-8"?>
<svg id="master-artboard" xmlns="http://www.w3.org/2000/svg" viewBox="0 0 500 500" width="500px" height="500px"><defs><style id="ee-google-fonts">@import url(https://fonts.googleapis.com/css?family=Asset:400);</style></defs><rect id="ee-background" x="0" y="0" width="500" height="500" style="fill: white; fill-opacity: 0; pointer-events: none;"/><path d="M 198.95562744140625 224.44000244140625 C 198.95562744140625 223.2933349609375 199.17562866210938 222.2933349609375 199.61563110351562 221.44000244140625 C 200.05563354492188 220.586669921875 200.66229248046875 219.85665893554688 201.43563842773438 219.25 C 202.20230102539062 218.64334106445312 203.1123046875 218.14334106445312 204.16563415527344 217.75 C 205.21896362304688 217.35665893554688 206.352294921875 217.04666137695312 207.5656280517578 216.82000732421875 C 208.78562927246094 216.586669921875 210.0656280517578 216.42666625976562 211.4056396484375 216.33999633789062 C 212.74563598632812 216.25332641601562 214.08895874023438 216.2100067138672 215.43563842773438 216.2100067138672 C 216.775634765625 216.2100067138672 218.11563110351562 216.25332641601562 219.45562744140625 216.33999633789062 C 220.79562377929688 216.42666625976562 222.07896423339844 216.586669921875 223.30563354492188 216.82000732421875 C 224.525634765625 217.04666137695312 225.66229248046875 217.35665893554688 226.71563720703125 217.75 C 227.76229858398438 218.14334106445312 228.67230224609375 218.64334106445312 229.4456329345703 219.25 C 230.21229553222656 219.85665893554688 230.8156280517578 220.586669921875 231.25563049316406 221.44000244140625 C 231.70230102539062 222.2933349609375 231.92562866210938 223.2933349609375 231.92562866210938 224.44000244140625 C 231.92562866210938 225.586669921875 231.70230102539062 226.586669921875 231.25563049316406 227.44000244140625 C 230.8156280517578 228.2933349609375 230.21229553222656 229.02333068847656 229.4456329345703 229.6300048828125 C 228.67230224609375 230.2433319091797 227.76229858398438 230.7433319091797 226.71563720703125 231.1300048828125 C 225.66229248046875 231.52333068847656 224.525634765625 231.8333282470703 223.30563354492188 232.05999755859375 C 222.07896423339844 232.2933349609375 220.79562377929688 232.45333862304688 219.45562744140625 232.5399932861328 C 218.11563110351562 232.6266632080078 216.775634765625 232.6699981689453 215.43563842773438 232.6699981689453 C 214.08895874023438 232.6699981689453 212.74563598632812 232.6266632080078 211.4056396484375 232.5399932861328 C 210.0656280517578 232.45333862304688 208.78562927246094 232.2933349609375 207.5656280517578 232.05999755859375 C 206.352294921875 231.8333282470703 205.21896362304688 231.52333068847656 204.16563415527344 231.1300048828125 C 203.1123046875 230.7433319091797 202.20230102539062 230.2433319091797 201.43563842773438 229.6300048828125 C 200.66229248046875 229.02333068847656 200.05563354492188 228.2933349609375 199.61563110351562 227.44000244140625 C 199.17562866210938 226.586669921875 198.95562744140625 225.586669921875 198.95562744140625 224.44000244140625 M 212.6056365966797 224.44000244140625 C 212.6056365966797 225.42666625976562 212.64230346679688 226.33999633789062 212.71563720703125 227.17999267578125 C 212.79562377929688 228.02667236328125 212.93563842773438 228.7566680908203 213.13563537597656 229.3699951171875 C 213.33563232421875 229.98333740234375 213.61563110351562 230.46665954589844 213.9756317138672 230.82000732421875 C 214.33563232421875 231.1666717529297 214.8022918701172 231.33999633789062 215.37562561035156 231.33999633789062 C 215.94229125976562 231.33999633789062 216.41229248046875 231.1666717529297 216.78562927246094 230.82000732421875 C 217.15896606445312 230.46665954589844 217.45562744140625 229.98333740234375 217.67562866210938 229.3699951171875 C 217.8889617919922 228.7566680908203 218.04229736328125 228.02667236328125 218.13563537597656 227.17999267578125 C 218.2222900390625 226.33999633789062 218.265625 225.42666625976562 218.265625 224.44000244140625 C 218.265625 223.45333862304688 218.2222900390625 222.5399932861328 218.13563537597656 221.6999969482422 C 218.04229736328125 220.85333251953125 217.8889617919922 220.1233367919922 217.67562866210938 219.50999450683594 C 217.45562744140625 218.88999938964844 217.15896606445312 218.4066619873047 216.78562927246094 218.05999755859375 C 216.41229248046875 217.7133331298828 215.94229125976562 217.5399932861328 215.37562561035156 217.5399932861328 C 214.9889678955078 217.5399932861328 214.6556396484375 217.6300048828125 214.37562561035156 217.80999755859375 C 214.08895874023438 217.99000549316406 213.84230041503906 218.23666381835938 213.63563537597656 218.5500030517578 C 213.43563842773438 218.8699951171875 213.2689666748047 219.24667358398438 213.13563537597656 219.67999267578125 C 213.00230407714844 220.1199951171875 212.8956298828125 220.59666442871094 212.8156280517578 221.11000061035156 C 212.74229431152344 221.61666870117188 212.68896484375 222.15333557128906 212.6556396484375 222.72000122070312 C 212.62229919433594 223.2866668701172 212.6056365966797 223.86000061035156 212.6056365966797 224.44000244140625 ZM 234.314697265625 230.89999389648438 C 235.488037109375 230.86000061035156 236.46136474609375 230.72332763671875 237.2346954345703 230.49000549316406 C 238.00802612304688 230.2566680908203 238.62469482421875 229.8800048828125 239.08470153808594 229.36000061035156 C 239.54469299316406 228.84666442871094 239.87136840820312 228.1699981689453 240.064697265625 227.3300018310547 C 240.25802612304688 226.49000549316406 240.35470581054688 225.43666076660156 240.35470581054688 224.1699981689453 C 240.35470581054688 223.31666564941406 240.30470275878906 222.57000732421875 240.20469665527344 221.92999267578125 C 240.10470581054688 221.2899932861328 239.9513702392578 220.7433319091797 239.7447052001953 220.2899932861328 C 239.53802490234375 219.8300018310547 239.2747039794922 219.4499969482422 238.95469665527344 219.14999389648438 C 238.62803649902344 218.85000610351562 238.24136352539062 218.6133270263672 237.79469299316406 218.44000244140625 C 237.34803771972656 218.26666259765625 236.83802795410156 218.14666748046875 236.2646942138672 218.0800018310547 C 235.6846923828125 218.0066680908203 235.03469848632812 217.97000122070312 234.314697265625 217.97000122070312 L 234.314697265625 216.8699951171875 L 253.30470275878906 216.8699951171875 C 255.33135986328125 216.8699951171875 257.1480407714844 216.8866729736328 258.75469970703125 216.9199981689453 C 260.3547058105469 216.94667053222656 261.7580261230469 217.0066680908203 262.9646911621094 217.10000610351562 C 264.17803955078125 217.18666076660156 265.21136474609375 217.31333923339844 266.064697265625 217.47999572753906 C 266.91802978515625 217.64666748046875 267.6113586425781 217.86666870117188 268.14471435546875 218.13999938964844 C 268.67803955078125 218.413330078125 269.064697265625 218.74667358398438 269.3046875 219.13999938964844 C 269.5513610839844 219.5399932861328 269.6746826171875 220.01333618164062 269.6746826171875 220.55999755859375 C 269.6746826171875 221.10665893554688 269.5213623046875 221.58999633789062 269.2146911621094 222.00999450683594 C 268.90802001953125 222.42999267578125 268.47802734375 222.7899932861328 267.9246826171875 223.08999633789062 C 267.3713684082031 223.39666748046875 266.7047119140625 223.65333557128906 265.9246826171875 223.86000061035156 C 265.1513671875 224.06666564941406 264.2913818359375 224.23333740234375 263.3446960449219 224.36000061035156 C 262.3980407714844 224.48666381835938 261.38470458984375 224.57666015625 260.3046875 224.6300048828125 C 259.2247009277344 224.68333435058594 258.0980224609375 224.7133331298828 256.9247131347656 224.72000122070312 L 261.9046936035156 224.72000122070312 C 262.95135498046875 224.72000122070312 263.8580322265625 224.7566680908203 264.62469482421875 224.8300018310547 C 265.391357421875 224.91000366210938 266.04803466796875 225.02999877929688 266.5946960449219 225.19000244140625 C 267.141357421875 225.35000610351562 267.5980224609375 225.5500030517578 267.9646911621094 225.7899932861328 C 268.33135986328125 226.0366668701172 268.63470458984375 226.3300018310547 268.87469482421875 226.6699981689453 C 269.11468505859375 227.00999450683594 269.314697265625 227.39999389648438 269.4747009277344 227.83999633789062 C 269.6280212402344 228.27999877929688 269.7713623046875 228.76666259765625 269.9046936035156 229.3000030517578 C 269.9847106933594 229.6133270263672 270.0780334472656 229.8733367919922 270.1846923828125 230.0800018310547 C 270.2913818359375 230.27999877929688 270.4313659667969 230.44000244140625 270.6047058105469 230.55999755859375 C 270.7846984863281 230.68666076660156 271.0113525390625 230.77333068847656 271.2846984863281 230.82000732421875 C 271.55804443359375 230.86666870117188 271.90802001953125 230.88999938964844 272.3346862792969 230.88999938964844 L 272.3346862792969 232.07000732421875 C 271.4480285644531 232.1699981689453 270.6313781738281 232.2566680908203 269.88470458984375 232.3300018310547 C 269.14471435546875 232.41000366210938 268.45135498046875 232.47332763671875 267.8046875 232.52000427246094 C 267.15802001953125 232.57333374023438 266.55804443359375 232.61000061035156 266.00469970703125 232.6300048828125 C 265.45135498046875 232.6566619873047 264.9247131347656 232.6699981689453 264.4247131347656 232.6699981689453 C 263.2913818359375 232.6699981689453 262.32470703125 232.64666748046875 261.5246887207031 232.60000610351562 C 260.7247009277344 232.55999755859375 260.04803466796875 232.48333740234375 259.49468994140625 232.3699951171875 C 258.9413757324219 232.2566680908203 258.5013732910156 232.10667419433594 258.1747131347656 231.9199981689453 C 257.84136962890625 231.74000549316406 257.5780334472656 231.5066680908203 257.38470458984375 231.22000122070312 C 257.1913757324219 230.93333435058594 257.0513610839844 230.5933380126953 256.9646911621094 230.1999969482422 C 256.8713684082031 229.80667114257812 256.79803466796875 229.34666442871094 256.74468994140625 228.82000732421875 C 256.67803955078125 228.18666076660156 256.57470703125 227.65333557128906 256.4346923828125 227.22000122070312 C 256.28802490234375 226.7866668701172 256.064697265625 226.42999267578125 255.7646942138672 226.14999389648438 C 255.46469116210938 225.8699951171875 255.0580291748047 225.6566619873047 254.54469299316406 225.50999450683594 C 254.03802490234375 225.3699951171875 253.37469482421875 225.27667236328125 252.55470275878906 225.22999572753906 C 252.57470703125 226.28334045410156 252.63803100585938 227.1699981689453 252.7447052001953 227.88999938964844 C 252.8513641357422 228.61666870117188 253.0146942138672 229.1999969482422 253.2346954345703 229.63999938964844 C 253.46136474609375 230.086669921875 253.74803161621094 230.41000366210938 254.09469604492188 230.61000061035156 C 254.44802856445312 230.80332946777344 254.88136291503906 230.89999389648438 255.3946990966797 230.89999389648438 L 255.3946990966797 232 L 234.314697265625 232 L 234.314697265625 230.89999389648438 M 252.53469848632812 223.94000244140625 C 253.29469299316406 223.9066619873047 253.99803161621094 223.836669921875 254.6446990966797 223.72999572753906 C 255.29803466796875 223.6233367919922 255.8580322265625 223.4633331298828 256.32470703125 223.25 C 256.7913818359375 223.0366668701172 257.15802001953125 222.75332641601562 257.4247131347656 222.39999389648438 C 257.6913757324219 222.04666137695312 257.82470703125 221.60665893554688 257.82470703125 221.0800018310547 C 257.82470703125 220.52667236328125 257.6980285644531 220.07333374023438 257.4447021484375 219.72000122070312 C 257.1913757324219 219.36666870117188 256.83135986328125 219.086669921875 256.36468505859375 218.8800048828125 C 255.89804077148438 218.67333984375 255.34136962890625 218.52667236328125 254.6947021484375 218.44000244140625 C 254.04803466796875 218.35333251953125 253.32803344726562 218.3000030517578 252.53469848632812 218.27999877929688 L 252.53469848632812 223.94000244140625 ZM 274.1460876464844 230.89999389648438 C 275.31939697265625 230.86000061035156 276.2927551269531 230.72332763671875 277.0660705566406 230.49000549316406 C 277.83941650390625 230.2566680908203 278.4560852050781 229.8800048828125 278.91607666015625 229.36000061035156 C 279.3760681152344 228.84666442871094 279.7027282714844 228.1699981689453 279.8960876464844 227.3300018310547 C 280.08941650390625 226.49000549316406 280.1860656738281 225.43666076660156 280.1860656738281 224.1699981689453 C 280.1860656738281 223.31666564941406 280.1360778808594 222.57000732421875 280.03607177734375 221.92999267578125 C 279.9360656738281 221.2899932861328 279.7827453613281 220.7433319091797 279.5760803222656 220.2899932861328 C 279.3694152832031 219.8300018310547 279.1060791015625 219.4499969482422 278.78607177734375 219.14999389648438 C 278.45941162109375 218.85000610351562 278.07275390625 218.6133270263672 277.6260681152344 218.44000244140625 C 277.1794128417969 218.26666259765625 276.6694030761719 218.14666748046875 276.0960693359375 218.0800018310547 C 275.5160827636719 218.0066680908203 274.8660888671875 217.97000122070312 274.1460876464844 217.97000122070312 L 274.1460876464844 216.8699951171875 L 293.716064453125 216.8699951171875 C 295.7893981933594 216.8699951171875 297.6060791015625 216.89334106445312 299.16607666015625 216.94000244140625 C 300.71942138671875 216.98666381835938 302.062744140625 217.06666564941406 303.1960754394531 217.17999267578125 C 304.32940673828125 217.2866668701172 305.2694091796875 217.42999267578125 306.0160827636719 217.61000061035156 C 306.76275634765625 217.7899932861328 307.3560791015625 218.01333618164062 307.79608154296875 218.27999877929688 C 308.236083984375 218.54666137695312 308.54608154296875 218.85665893554688 308.72607421875 219.2100067138672 C 308.90606689453125 219.57000732421875 308.9960632324219 219.98333740234375 308.9960632324219 220.4499969482422 C 308.9960632324219 220.97666931152344 308.8260803222656 221.43333435058594 308.486083984375 221.82000732421875 C 308.14605712890625 222.1999969482422 307.6794128417969 222.52000427246094 307.0860595703125 222.77999877929688 C 306.49273681640625 223.04666137695312 305.792724609375 223.25999450683594 304.986083984375 223.4199981689453 C 304.1794128417969 223.586669921875 303.302734375 223.7133331298828 302.3560791015625 223.8000030517578 C 301.41607666015625 223.89334106445312 300.4360656738281 223.95333862304688 299.41607666015625 223.97999572753906 C 298.389404296875 224.01333618164062 297.36273193359375 224.03334045410156 296.3360595703125 224.0399932861328 C 297.6094055175781 224.04666137695312 298.8594055175781 224.06666564941406 300.0860595703125 224.10000610351562 C 301.312744140625 224.1266632080078 302.4727478027344 224.18666076660156 303.5660705566406 224.27999877929688 C 304.6593933105469 224.3733367919922 305.6694030761719 224.5066680908203 306.5960693359375 224.67999267578125 C 307.5294189453125 224.84666442871094 308.32940673828125 225.07666015625 308.9960632324219 225.3699951171875 C 309.6694030761719 225.663330078125 310.1960754394531 226.02667236328125 310.5760803222656 226.4600067138672 C 310.9560852050781 226.8866729736328 311.14605712890625 227.39999389648438 311.14605712890625 228 C 311.14605712890625 228.89999389648438 310.7827453613281 229.6133270263672 310.05609130859375 230.13999938964844 C 309.3360595703125 230.6666717529297 308.2660827636719 231.07000732421875 306.8460693359375 231.35000610351562 C 305.4194030761719 231.6300048828125 303.65606689453125 231.80667114257812 301.5560607910156 231.8800048828125 C 299.44940185546875 231.9600067138672 297.01275634765625 232 294.2460632324219 232 L 274.1460876464844 232 L 274.1460876464844 230.89999389648438 M 292.7060852050781 223.1999969482422 L 292.7460632324219 223.2100067138672 C 293.51275634765625 223.19667053222656 294.19940185546875 223.15333557128906 294.8060607910156 223.0800018310547 C 295.40606689453125 223 295.9194030761719 222.8699951171875 296.3460693359375 222.69000244140625 C 296.7660827636719 222.50332641601562 297.08941650390625 222.25332641601562 297.3160705566406 221.94000244140625 C 297.5427551269531 221.6199951171875 297.65606689453125 221.2100067138672 297.65606689453125 220.7100067138672 C 297.65606689453125 220.20333862304688 297.5327453613281 219.7933349609375 297.28607177734375 219.47999572753906 C 297.0393981933594 219.16000366210938 296.68939208984375 218.913330078125 296.236083984375 218.74000549316406 C 295.77606201171875 218.56666564941406 295.21942138671875 218.44667053222656 294.5660705566406 218.3800048828125 C 293.9127502441406 218.32000732421875 293.1794128417969 218.2866668701172 292.3660888671875 218.27999877929688 L 292.3660888671875 223.1999969482422 L 292.7060852050781 223.1999969482422 M 292.3660888671875 230.5 C 293.1194152832031 230.5 293.8460693359375 230.47332763671875 294.54608154296875 230.4199981689453 C 295.2460632324219 230.36666870117188 295.8660888671875 230.23666381835938 296.40606689453125 230.02999877929688 C 296.93939208984375 229.8300018310547 297.3694152832031 229.52999877929688 297.6960754394531 229.1300048828125 C 298.0227355957031 228.73666381835938 298.1860656738281 228.1999969482422 298.1860656738281 227.52000427246094 C 298.1860656738281 226.83999633789062 298.0294189453125 226.30667114257812 297.716064453125 225.9199981689453 C 297.4027404785156 225.52667236328125 296.9794006347656 225.23333740234375 296.4460754394531 225.0399932861328 C 295.90606689453125 224.84666442871094 295.28607177734375 224.72332763671875 294.5860595703125 224.6699981689453 C 293.87939453125 224.61666870117188 293.139404296875 224.58999633789062 292.3660888671875 224.58999633789062 L 292.3660888671875 230.5 ZM 312.4639587402344 230.89999389648438 C 312.69061279296875 230.89999389648438 313.0006103515625 230.8333282470703 313.3939514160156 230.6999969482422 C 313.7806091308594 230.56666564941406 314.21063232421875 230.35333251953125 314.6839599609375 230.05999755859375 C 315.1506042480469 229.76666259765625 315.6372985839844 229.38999938964844 316.1439514160156 228.92999267578125 C 316.6506042480469 228.47000122070312 317.1372985839844 227.9066619873047 317.60394287109375 227.24000549316406 L 324.8939514160156 216.8699951171875 L 336.72393798828125 216.8699951171875 L 343.10394287109375 226.97999572753906 C 343.5506286621094 227.68666076660156 344.03729248046875 228.2866668701172 344.56396484375 228.77999877929688 C 345.0839538574219 229.27999877929688 345.6006164550781 229.68666076660156 346.11395263671875 230 C 346.6272888183594 230.30667114257812 347.1072998046875 230.53334045410156 347.553955078125 230.67999267578125 C 348.0072937011719 230.82666015625 348.3839416503906 230.89999389648438 348.6839599609375 230.89999389648438 L 348.6839599609375 232 L 326.1739501953125 232 L 326.1739501953125 230.89999389648438 C 326.5206298828125 230.89999389648438 326.86395263671875 230.85333251953125 327.2039489746094 230.75999450683594 C 327.5439453125 230.6666717529297 327.8472900390625 230.52333068847656 328.11395263671875 230.3300018310547 C 328.3872985839844 230.1366729736328 328.60394287109375 229.89666748046875 328.7639465332031 229.61000061035156 C 328.93060302734375 229.32333374023438 329.0139465332031 228.98333740234375 329.0139465332031 228.58999633789062 C 329.0139465332031 228.42333984375 328.97393798828125 228.2100067138672 328.8939514160156 227.9499969482422 L 319.553955078125 227.9499969482422 C 319.5139465332031 228.05667114257812 319.4872741699219 228.15333557128906 319.47393798828125 228.24000549316406 C 319.4539489746094 228.32666015625 319.4439392089844 228.4066619873047 319.4439392089844 228.47999572753906 C 319.4439392089844 228.8800048828125 319.52728271484375 229.22999572753906 319.6939392089844 229.52999877929688 C 319.8606262207031 229.8300018310547 320.0772705078125 230.0833282470703 320.3439636230469 230.2899932861328 C 320.6172790527344 230.49000549316406 320.9239501953125 230.64332580566406 321.2639465332031 230.75 C 321.60394287109375 230.85000610351562 321.9472961425781 230.89999389648438 322.2939453125 230.89999389648438 L 322.2939453125 232 L 312.4639587402344 232 L 312.4639587402344 230.89999389648438 M 328.1939392089844 226.32000732421875 C 328.02728271484375 226.0066680908203 327.8339538574219 225.64334106445312 327.61395263671875 225.22999572753906 C 327.3939514160156 224.82333374023438 327.1372985839844 224.35665893554688 326.8439636230469 223.8300018310547 C 326.5439453125 223.30999755859375 326.21063232421875 222.72332763671875 325.8439636230469 222.07000732421875 C 325.4706115722656 221.42333984375 325.0506286621094 220.70333862304688 324.5839538574219 219.91000366210938 C 324.0439453125 220.71665954589844 323.553955078125 221.4499969482422 323.11395263671875 222.11000061035156 C 322.68060302734375 222.76333618164062 322.2939453125 223.35333251953125 321.9539489746094 223.8800048828125 C 321.61395263671875 224.39999389648438 321.3172912597656 224.86000061035156 321.06396484375 225.25999450683594 C 320.81060791015625 225.66000366210938 320.5939636230469 226.01333618164062 320.4139404296875 226.32000732421875 L 328.1939392089844 226.32000732421875 ZM 349.9230651855469 230.89999389648438 C 351.0964050292969 230.86000061035156 352.0697326660156 230.72332763671875 352.8430480957031 230.49000549316406 C 353.61639404296875 230.2566680908203 354.2330627441406 229.8800048828125 354.69305419921875 229.36000061035156 C 355.153076171875 228.84666442871094 355.479736328125 228.1699981689453 355.6730651855469 227.3300018310547 C 355.8597412109375 226.49000549316406 355.95306396484375 225.43666076660156 355.95306396484375 224.1699981689453 C 355.95306396484375 223.31666564941406 355.9064025878906 222.57000732421875 355.81304931640625 221.92999267578125 C 355.71307373046875 221.2899932861328 355.5597229003906 220.7433319091797 355.3530578613281 220.2899932861328 C 355.1463928222656 219.8300018310547 354.8797302246094 219.4499969482422 354.5530700683594 219.14999389648438 C 354.2330627441406 218.85000610351562 353.8497314453125 218.6133270263672 353.403076171875 218.44000244140625 C 352.9563903808594 218.26666259765625 352.44305419921875 218.14666748046875 351.8630676269531 218.0800018310547 C 351.28973388671875 218.0066680908203 350.64306640625 217.97000122070312 349.9230651855469 217.97000122070312 L 349.9230651855469 216.8699951171875 L 370.383056640625 216.8699951171875 L 380.70306396484375 225.25999450683594 L 380.7330627441406 224.1699981689453 C 380.7330627441406 222.88999938964844 380.6197204589844 221.84666442871094 380.39306640625 221.0399932861328 C 380.1730651855469 220.24000549316406 379.8197326660156 219.61000061035156 379.33306884765625 219.14999389648438 C 378.8530578613281 218.69000244140625 378.229736328125 218.3800048828125 377.46307373046875 218.22000122070312 C 376.70306396484375 218.05332946777344 375.7830505371094 217.97000122070312 374.70306396484375 217.97000122070312 L 374.70306396484375 216.8699951171875 L 387.59307861328125 216.8699951171875 L 387.59307861328125 217.97000122070312 C 386.8797302246094 217.97000122070312 386.24639892578125 218.0066680908203 385.69305419921875 218.0800018310547 C 385.1463928222656 218.14666748046875 384.6730651855469 218.26666259765625 384.2730712890625 218.44000244140625 C 383.873046875 218.6133270263672 383.5364074707031 218.85000610351562 383.2630615234375 219.14999389648438 C 382.99639892578125 219.4499969482422 382.77972412109375 219.8300018310547 382.6130676269531 220.2899932861328 C 382.45306396484375 220.7433319091797 382.3363952636719 221.2899932861328 382.2630615234375 221.92999267578125 C 382.1964111328125 222.57000732421875 382.1630554199219 223.31666564941406 382.1630554199219 224.1699981689453 L 382.1630554199219 232 L 370.133056640625 232 C 368.7264099121094 230.77999877929688 367.29638671875 229.5500030517578 365.84307861328125 228.30999755859375 C 365.229736328125 227.77667236328125 364.5797424316406 227.21665954589844 363.89306640625 226.6300048828125 C 363.2063903808594 226.0366668701172 362.50640869140625 225.43666076660156 361.7930603027344 224.8300018310547 C 361.0863952636719 224.22999572753906 360.383056640625 223.6266632080078 359.6830749511719 223.02000427246094 C 358.9764099121094 222.4199981689453 358.29638671875 221.83999633789062 357.64306640625 221.27999877929688 C 357.54974365234375 221.6666717529297 357.4830627441406 222.10000610351562 357.44305419921875 222.5800018310547 C 357.3963928222656 223.05332946777344 357.3730773925781 223.5833282470703 357.3730773925781 224.1699981689453 C 357.3730773925781 225.43666076660156 357.4697265625 226.49000549316406 357.6630554199219 227.3300018310547 C 357.8497314453125 228.1699981689453 358.1763916015625 228.84666442871094 358.64306640625 229.36000061035156 C 359.1030578613281 229.8800048828125 359.7197265625 230.2566680908203 360.4930725097656 230.49000549316406 C 361.2663879394531 230.72332763671875 362.2330627441406 230.86000061035156 363.39306640625 230.89999389648438 L 363.39306640625 232 L 349.9230651855469 232 L 349.9230651855469 230.89999389648438 ZM 389.58062744140625 225.6999969482422 C 389.5606384277344 225.4933319091797 389.54730224609375 225.2933349609375 389.5406494140625 225.10000610351562 C 389.5273132324219 224.89999389648438 389.5206298828125 224.6999969482422 389.5206298828125 224.5 C 389.5206298828125 224.30667114257812 389.5273132324219 224.11000061035156 389.5406494140625 223.91000366210938 C 389.54730224609375 223.7100067138672 389.5606384277344 223.5066680908203 389.58062744140625 223.3000030517578 C 389.7073059082031 223.32666015625 389.9039611816406 223.35000610351562 390.170654296875 223.3699951171875 C 390.4439697265625 223.39666748046875 390.76397705078125 223.4166717529297 391.1306457519531 223.42999267578125 C 391.497314453125 223.4499969482422 391.900634765625 223.4633331298828 392.34063720703125 223.47000122070312 C 392.77398681640625 223.48333740234375 393.2173156738281 223.4933319091797 393.670654296875 223.5 C 394.12396240234375 223.51333618164062 394.5706481933594 223.52000427246094 395.0106506347656 223.52000427246094 C 395.4573059082031 223.52667236328125 395.8673095703125 223.52999877929688 396.2406311035156 223.52999877929688 C 396.6139831542969 223.5366668701172 396.9406433105469 223.5399932861328 397.22064208984375 223.5399932861328 C 397.5006408691406 223.5399932861328 397.7073059082031 223.5399932861328 397.84063720703125 223.5399932861328 C 398.08062744140625 223.5399932861328 398.4239807128906 223.5366668701172 398.8706359863281 223.52999877929688 C 399.31732177734375 223.52999877929688 399.8206481933594 223.52667236328125 400.3806457519531 223.52000427246094 C 400.9339599609375 223.5066680908203 401.5072937011719 223.49667358398438 402.10064697265625 223.49000549316406 C 402.7006530761719 223.47666931152344 403.2706298828125 223.4600067138672 403.8106384277344 223.44000244140625 C 404.35064697265625 223.4199981689453 404.8273010253906 223.39999389648438 405.2406311035156 223.3800048828125 C 405.66064453125 223.36000061035156 405.9639892578125 223.3333282470703 406.150634765625 223.3000030517578 C 406.1573181152344 223.36000061035156 406.16729736328125 223.44000244140625 406.1806335449219 223.5399932861328 C 406.18731689453125 223.64666748046875 406.1906433105469 223.75999450683594 406.1906433105469 223.8800048828125 C 406.1972961425781 223.9933319091797 406.2039794921875 224.10665893554688 406.21063232421875 224.22000122070312 C 406.21063232421875 224.3333282470703 406.21063232421875 224.42666625976562 406.21063232421875 224.5 C 406.21063232421875 224.55999755859375 406.21063232421875 224.64666748046875 406.21063232421875 224.75999450683594 C 406.2039794921875 224.86666870117188 406.1972961425781 224.97999572753906 406.1906433105469 225.10000610351562 C 406.1906433105469 225.2133331298828 406.18731689453125 225.32333374023438 406.1806335449219 225.42999267578125 C 406.16729736328125 225.5366668701172 406.1573181152344 225.6266632080078 406.150634765625 225.6999969482422 C 405.97064208984375 225.67333984375 405.66729736328125 225.64666748046875 405.2406311035156 225.6199951171875 C 404.80731201171875 225.60000610351562 404.31396484375 225.5800018310547 403.7606506347656 225.55999755859375 C 403.2073059082031 225.5399932861328 402.6206359863281 225.52333068847656 402.0006408691406 225.50999450683594 C 401.3872985839844 225.50332641601562 400.8039855957031 225.4933319091797 400.2506408691406 225.47999572753906 C 399.6906433105469 225.47332763671875 399.1939697265625 225.47000122070312 398.7606506347656 225.47000122070312 C 398.3273010253906 225.4633331298828 398.0206298828125 225.4600067138672 397.84063720703125 225.4600067138672 C 397.6939697265625 225.4600067138672 397.477294921875 225.4633331298828 397.1906433105469 225.47000122070312 C 396.8973083496094 225.47000122070312 396.56396484375 225.47332763671875 396.1906433105469 225.47999572753906 C 395.81732177734375 225.47999572753906 395.41064453125 225.48666381835938 394.97064208984375 225.5 C 394.52398681640625 225.5066680908203 394.08062744140625 225.51333618164062 393.6406555175781 225.52000427246094 C 393.1939697265625 225.52667236328125 392.75396728515625 225.5366668701172 392.3206481933594 225.5500030517578 C 391.8872985839844 225.56333923339844 391.4873046875 225.57666015625 391.1206359863281 225.58999633789062 C 390.7606506347656 225.60333251953125 390.4439697265625 225.6199951171875 390.170654296875 225.63999938964844 C 389.9039611816406 225.65333557128906 389.7073059082031 225.67333984375 389.58062744140625 225.6999969482422 ZM 411.2751159667969 232.6699981689453 C 411.1884460449219 232.50332641601562 411.1051025390625 232.27333068847656 411.0251159667969 231.97999572753906 C 410.9517822265625 231.68666076660156 410.88177490234375 231.36000061035156 410.8150939941406 231 C 410.7484436035156 230.63999938964844 410.68511962890625 230.26666259765625 410.6251220703125 229.8800048828125 C 410.5650939941406 229.4933319091797 410.5151062011719 229.1199951171875 410.47509765625 228.75999450683594 C 410.43511962890625 228.39334106445312 410.4051208496094 228.05999755859375 410.3851013183594 227.75999450683594 C 410.37176513671875 227.4600067138672 410.3651123046875 227.22000122070312 410.3651123046875 227.0399932861328 L 411.55511474609375 227.0399932861328 C 411.8150939941406 227.56666564941406 412.1551208496094 228.03334045410156 412.5751037597656 228.44000244140625 C 412.9951171875 228.84666442871094 413.47509765625 229.1999969482422 414.0151062011719 229.5 C 414.55511474609375 229.80667114257812 415.14178466796875 230.06666564941406 415.7751159667969 230.27999877929688 C 416.408447265625 230.48666381835938 417.0650939941406 230.6566619873047 417.7451171875 230.7899932861328 C 418.4317626953125 230.9166717529297 419.1284484863281 231.00999450683594 419.8351135253906 231.07000732421875 C 420.5417785644531 231.1300048828125 421.2384338378906 231.16000366210938 421.92510986328125 231.16000366210938 C 423.0517883300781 231.16000366210938 423.9884338378906 231.11000061035156 424.735107421875 231.00999450683594 C 425.4884338378906 230.91000366210938 426.0917663574219 230.77667236328125 426.54510498046875 230.61000061035156 C 426.9984436035156 230.44332885742188 427.3184509277344 230.24667358398438 427.5050964355469 230.02000427246094 C 427.6917724609375 229.7933349609375 427.78509521484375 229.54666137695312 427.78509521484375 229.27999877929688 C 427.78509521484375 228.89999389648438 427.62176513671875 228.58999633789062 427.29510498046875 228.35000610351562 C 426.96844482421875 228.11000061035156 426.52178955078125 227.9199981689453 425.9551086425781 227.77999877929688 C 425.388427734375 227.63999938964844 424.72845458984375 227.52999877929688 423.97509765625 227.4499969482422 C 423.2217712402344 227.3766632080078 422.4184265136719 227.30667114257812 421.5650939941406 227.24000549316406 C 420.71844482421875 227.17999267578125 419.8517761230469 227.1133270263672 418.9651184082031 227.0399932861328 C 418.07177734375 226.96665954589844 417.2017822265625 226.85665893554688 416.3551025390625 226.7100067138672 C 415.5084533691406 226.56333923339844 414.70843505859375 226.3699951171875 413.9551086425781 226.1300048828125 C 413.2017822265625 225.89666748046875 412.5417785644531 225.586669921875 411.97509765625 225.1999969482422 C 411.408447265625 224.82000732421875 410.95843505859375 224.35000610351562 410.6251220703125 223.7899932861328 C 410.2984313964844 223.22999572753906 410.1351013183594 222.55667114257812 410.1351013183594 221.77000427246094 C 410.1351013183594 221.0500030517578 410.3084411621094 220.4166717529297 410.6551208496094 219.8699951171875 C 410.9951171875 219.31666564941406 411.4717712402344 218.8333282470703 412.0851135253906 218.4199981689453 C 412.6917724609375 218.0066680908203 413.4184265136719 217.6566619873047 414.2651062011719 217.3699951171875 C 415.1051025390625 217.08999633789062 416.0251159667969 216.86666870117188 417.0251159667969 216.6999969482422 C 418.0184326171875 216.52667236328125 419.07177734375 216.40333557128906 420.18511962890625 216.3300018310547 C 421.2984313964844 216.25 422.43511962890625 216.2100067138672 423.5950927734375 216.2100067138672 C 424.5151062011719 216.2100067138672 425.41510009765625 216.24000549316406 426.29510498046875 216.3000030517578 C 427.1817626953125 216.35333251953125 428.03509521484375 216.41000366210938 428.8551025390625 216.47000122070312 C 429.6817626953125 216.5366668701172 430.4717712402344 216.59666442871094 431.22509765625 216.64999389648438 C 431.97845458984375 216.70333862304688 432.6917724609375 216.72999572753906 433.3651123046875 216.72999572753906 C 433.78509521484375 216.72999572753906 434.1551208496094 216.72332763671875 434.47509765625 216.7100067138672 C 434.7884521484375 216.69000244140625 435.0950927734375 216.66000366210938 435.3951110839844 216.6199951171875 C 435.6884460449219 216.586669921875 435.9884338378906 216.5366668701172 436.29510498046875 216.47000122070312 C 436.6017761230469 216.40333557128906 436.9517822265625 216.31666564941406 437.3450927734375 216.2100067138672 C 437.4317626953125 216.38333129882812 437.51177978515625 216.60333251953125 437.5851135253906 216.8699951171875 C 437.658447265625 217.1366729736328 437.72845458984375 217.42999267578125 437.79510498046875 217.75 C 437.8617858886719 218.07000732421875 437.92510986328125 218.40333557128906 437.985107421875 218.75 C 438.0384521484375 219.08999633789062 438.0851135253906 219.4199981689453 438.1251220703125 219.74000549316406 C 438.16510009765625 220.05999755859375 438.1917724609375 220.36000061035156 438.2051086425781 220.63999938964844 C 438.22509765625 220.913330078125 438.235107421875 221.13999938964844 438.235107421875 221.32000732421875 L 436.91510009765625 221.32000732421875 C 436.8084411621094 221.02000427246094 436.5950927734375 220.71665954589844 436.2751159667969 220.41000366210938 C 435.9617614746094 220.10333251953125 435.5584411621094 219.80999755859375 435.0650939941406 219.52999877929688 C 434.57177734375 219.25 434.0050964355469 218.99000549316406 433.3651123046875 218.75 C 432.72509765625 218.50332641601562 432.0251159667969 218.2899932861328 431.2651062011719 218.11000061035156 C 430.5050964355469 217.92999267578125 429.7017822265625 217.7899932861328 428.8551025390625 217.69000244140625 C 428.00177001953125 217.58999633789062 427.12176513671875 217.5399932861328 426.2151184082031 217.5399932861328 C 425.7017822265625 217.5399932861328 425.2484436035156 217.586669921875 424.8551025390625 217.67999267578125 C 424.4551086425781 217.77333068847656 424.1184387207031 217.89666748046875 423.8450927734375 218.0500030517578 C 423.57177734375 218.20333862304688 423.3651123046875 218.3800048828125 423.22509765625 218.5800018310547 C 423.0851135253906 218.77333068847656 423.0151062011719 218.97666931152344 423.0151062011719 219.19000244140625 C 423.0151062011719 219.64999389648438 423.1717834472656 220.02667236328125 423.485107421875 220.32000732421875 C 423.7984313964844 220.6133270263672 424.22509765625 220.85000610351562 424.7651062011719 221.02999877929688 C 425.30511474609375 221.20333862304688 425.9317626953125 221.336669921875 426.6451110839844 221.42999267578125 C 427.3584289550781 221.52333068847656 428.1184387207031 221.60665893554688 428.92510986328125 221.67999267578125 C 429.7384338378906 221.74667358398438 430.5684509277344 221.82000732421875 431.41510009765625 221.89999389648438 C 432.26177978515625 221.97999572753906 433.08843994140625 222.08999633789062 433.8951110839844 222.22999572753906 C 434.70843505859375 222.3766632080078 435.4717712402344 222.57000732421875 436.18511962890625 222.80999755859375 C 436.8984375 223.05667114257812 437.5251159667969 223.3766632080078 438.0650939941406 223.77000427246094 C 438.6051025390625 224.1699981689453 439.0317687988281 224.6666717529297 439.3450927734375 225.25999450683594 C 439.6517639160156 225.84666442871094 439.80511474609375 226.55667114257812 439.80511474609375 227.38999938964844 C 439.80511474609375 228.1566619873047 439.6284484863281 228.82000732421875 439.2751159667969 229.3800048828125 C 438.91510009765625 229.94000244140625 438.41510009765625 230.413330078125 437.7751159667969 230.8000030517578 C 437.14178466796875 231.19332885742188 436.39178466796875 231.50999450683594 435.5251159667969 231.75 C 434.6517639160156 231.99667358398438 433.7117614746094 232.18666076660156 432.7051086425781 232.32000732421875 C 431.69842529296875 232.4600067138672 430.64178466796875 232.55332946777344 429.53509521484375 232.60000610351562 C 428.4217834472656 232.64666748046875 427.30511474609375 232.6699981689453 426.18511962890625 232.6699981689453 C 425.18511962890625 232.6699981689453 424.24176025390625 232.64332580566406 423.3551025390625 232.58999633789062 C 422.47509765625 232.52999877929688 421.6017761230469 232.47000122070312 420.735107421875 232.41000366210938 C 419.8684387207031 232.35000610351562 418.985107421875 232.2899932861328 418.0851135253906 232.22999572753906 C 417.1917724609375 232.17666625976562 416.2384338378906 232.14999389648438 415.22509765625 232.14999389648438 C 414.811767578125 232.14999389648438 414.4450988769531 232.16000366210938 414.1251220703125 232.17999267578125 C 413.811767578125 232.19332885742188 413.5084533691406 232.22000122070312 413.2151184082031 232.25999450683594 C 412.9217834472656 232.3000030517578 412.62176513671875 232.35333251953125 412.3150939941406 232.4199981689453 C 412.0151062011719 232.48666381835938 411.6684265136719 232.57000732421875 411.2751159667969 232.6699981689453 ZM 442.1816101074219 230.89999389648438 C 443.35491943359375 230.86000061035156 444.3282775878906 230.72332763671875 445.1015930175781 230.49000549316406 C 445.87493896484375 230.2566680908203 446.4916076660156 229.8800048828125 446.95159912109375 229.36000061035156 C 447.4115905761719 228.84666442871094 447.7382507324219 228.1699981689453 447.9316101074219 227.3300018310547 C 448.12493896484375 226.49000549316406 448.2215881347656 225.43666076660156 448.2215881347656 224.1699981689453 C 448.2215881347656 223.31666564941406 448.1716003417969 222.57000732421875 448.07159423828125 221.92999267578125 C 447.9715881347656 221.2899932861328 447.8182678222656 220.7433319091797 447.6116027832031 220.2899932861328 C 447.4049377441406 219.8300018310547 447.1416015625 219.4499969482422 446.82159423828125 219.14999389648438 C 446.49493408203125 218.85000610351562 446.1082763671875 218.6133270263672 445.6615905761719 218.44000244140625 C 445.2149353027344 218.26666259765625 444.7049255371094 218.14666748046875 444.131591796875 218.0800018310547 C 443.5516052246094 218.0066680908203 442.901611328125 217.97000122070312 442.1816101074219 217.97000122070312 L 442.1816101074219 216.8699951171875 L 461.881591796875 216.8699951171875 L 461.881591796875 217.97000122070312 C 461.56158447265625 217.97000122070312 461.304931640625 218.0500030517578 461.1116027832031 218.2100067138672 C 460.9249267578125 218.3633270263672 460.77825927734375 218.6566619873047 460.6716003417969 219.08999633789062 C 460.56494140625 219.51666259765625 460.49493408203125 220.11666870117188 460.46160888671875 220.88999938964844 C 460.4216003417969 221.663330078125 460.401611328125 222.663330078125 460.401611328125 223.88999938964844 L 465.58160400390625 223.88999938964844 C 465.58160400390625 222.663330078125 465.56494140625 221.663330078125 465.5315856933594 220.88999938964844 C 465.4916076660156 220.11666870117188 465.41827392578125 219.51666259765625 465.31158447265625 219.08999633789062 C 465.2049255371094 218.6566619873047 465.054931640625 218.3633270263672 464.8616027832031 218.2100067138672 C 464.6749267578125 218.0500030517578 464.4249267578125 217.97000122070312 464.1116027832031 217.97000122070312 L 464.1116027832031 216.8699951171875 L 483.7815856933594 216.8699951171875 L 483.7815856933594 217.97000122070312 C 482.7149353027344 217.97000122070312 481.8016052246094 218.05332946777344 481.0415954589844 218.22000122070312 C 480.2749328613281 218.3800048828125 479.651611328125 218.69000244140625 479.1716003417969 219.14999389648438 C 478.6849365234375 219.61000061035156 478.3282470703125 220.24000549316406 478.1015930175781 221.0399932861328 C 477.87493896484375 221.84666442871094 477.7615966796875 222.88999938964844 477.7615966796875 224.1699981689453 C 477.7615966796875 225.43666076660156 477.8582763671875 226.49000549316406 478.0516052246094 227.3300018310547 C 478.2382507324219 228.1699981689453 478.56494140625 228.84666442871094 479.0315856933594 229.36000061035156 C 479.4916076660156 229.8800048828125 480.1082763671875 230.2566680908203 480.881591796875 230.49000549316406 C 481.6549377441406 230.72332763671875 482.62158203125 230.86000061035156 483.7815856933594 230.89999389648438 L 483.7815856933594 232 L 464.1116027832031 232 L 464.1116027832031 230.89999389648438 C 464.29827880859375 230.86666870117188 464.47491455078125 230.75 464.6416015625 230.5500030517578 C 464.8016052246094 230.35000610351562 464.9449157714844 230.0366668701172 465.07159423828125 229.61000061035156 C 465.2049255371094 229.17666625976562 465.31494140625 228.61666870117188 465.401611328125 227.92999267578125 C 465.4882507324219 227.23666381835938 465.5415954589844 226.3866729736328 465.56158447265625 225.3800048828125 L 460.4216003417969 225.3800048828125 C 460.44158935546875 226.3866729736328 460.49493408203125 227.23666381835938 460.58160400390625 227.92999267578125 C 460.66827392578125 228.61666870117188 460.7749328613281 229.17666625976562 460.901611328125 229.61000061035156 C 461.0349426269531 230.0366668701172 461.1849365234375 230.35000610351562 461.3515930175781 230.5500030517578 C 461.51824951171875 230.75 461.6949157714844 230.86666870117188 461.881591796875 230.89999389648438 L 461.881591796875 232 L 442.1816101074219 232 L 442.1816101074219 230.89999389648438 ZM 486.1864318847656 224.44000244140625 C 486.1864318847656 223.2933349609375 486.40643310546875 222.2933349609375 486.846435546875 221.44000244140625 C 487.2864074707031 220.586669921875 487.8930969238281 219.85665893554688 488.6664123535156 219.25 C 489.4330749511719 218.64334106445312 490.34307861328125 218.14334106445312 491.39642333984375 217.75 C 492.44976806640625 217.35665893554688 493.5830993652344 217.04666137695312 494.7964172363281 216.82000732421875 C 496.01641845703125 216.586669921875 497.2964172363281 216.42666625976562 498.63641357421875 216.33999633789062 C 499.9764099121094 216.25332641601562 501.31976318359375 216.2100067138672 502.6664123535156 216.2100067138672 C 504.00640869140625 216.2100067138672 505.346435546875 216.25332641601562 506.6864318847656 216.33999633789062 C 508.02642822265625 216.42666625976562 509.30975341796875 216.586669921875 510.5364074707031 216.82000732421875 C 511.75640869140625 217.04666137695312 512.89306640625 217.35665893554688 513.9464111328125 217.75 C 514.9931030273438 218.14334106445312 515.903076171875 218.64334106445312 516.6763916015625 219.25 C 517.443115234375 219.85665893554688 518.0464477539062 220.586669921875 518.4864501953125 221.44000244140625 C 518.93310546875 222.2933349609375 519.1564331054688 223.2933349609375 519.1564331054688 224.44000244140625 C 519.1564331054688 225.586669921875 518.93310546875 226.586669921875 518.4864501953125 227.44000244140625 C 518.0464477539062 228.2933349609375 517.443115234375 229.02333068847656 516.6763916015625 229.6300048828125 C 515.903076171875 230.2433319091797 514.9931030273438 230.7433319091797 513.9464111328125 231.1300048828125 C 512.89306640625 231.52333068847656 511.75640869140625 231.8333282470703 510.5364074707031 232.05999755859375 C 509.30975341796875 232.2933349609375 508.02642822265625 232.45333862304688 506.6864318847656 232.5399932861328 C 505.346435546875 232.6266632080078 504.00640869140625 232.6699981689453 502.6664123535156 232.6699981689453 C 501.31976318359375 232.6699981689453 499.9764099121094 232.6266632080078 498.63641357421875 232.5399932861328 C 497.2964172363281 232.45333862304688 496.01641845703125 232.2933349609375 494.7964172363281 232.05999755859375 C 493.5830993652344 231.8333282470703 492.44976806640625 231.52333068847656 491.39642333984375 231.1300048828125 C 490.34307861328125 230.7433319091797 489.4330749511719 230.2433319091797 488.6664123535156 229.6300048828125 C 487.8930969238281 229.02333068847656 487.2864074707031 228.2933349609375 486.846435546875 227.44000244140625 C 486.40643310546875 226.586669921875 486.1864318847656 225.586669921875 486.1864318847656 224.44000244140625 M 499.83642578125 224.44000244140625 C 499.83642578125 225.42666625976562 499.8730773925781 226.33999633789062 499.9464111328125 227.17999267578125 C 500.02642822265625 228.02667236328125 500.1664123535156 228.7566680908203 500.3664245605469 229.3699951171875 C 500.56640625 229.98333740234375 500.846435546875 230.46665954589844 501.2064208984375 230.82000732421875 C 501.56640625 231.1666717529297 502.0330810546875 231.33999633789062 502.6064147949219 231.33999633789062 C 503.173095703125 231.33999633789062 503.6430969238281 231.1666717529297 504.01641845703125 230.82000732421875 C 504.3897399902344 230.46665954589844 504.6864318847656 229.98333740234375 504.90643310546875 229.3699951171875 C 505.1197509765625 228.7566680908203 505.2731018066406 228.02667236328125 505.3664245605469 227.17999267578125 C 505.4530944824219 226.33999633789062 505.4964294433594 225.42666625976562 505.4964294433594 224.44000244140625 C 505.4964294433594 223.45333862304688 505.4530944824219 222.5399932861328 505.3664245605469 221.6999969482422 C 505.2731018066406 220.85333251953125 505.1197509765625 220.1233367919922 504.90643310546875 219.50999450683594 C 504.6864318847656 218.88999938964844 504.3897399902344 218.4066619873047 504.01641845703125 218.05999755859375 C 503.6430969238281 217.7133331298828 503.173095703125 217.5399932861328 502.6064147949219 217.5399932861328 C 502.2197570800781 217.5399932861328 501.88641357421875 217.6300048828125 501.6064147949219 217.80999755859375 C 501.31976318359375 217.99000549316406 501.0730895996094 218.23666381835938 500.8664245605469 218.5500030517578 C 500.6664123535156 218.8699951171875 500.499755859375 219.24667358398438 500.3664245605469 219.67999267578125 C 500.23309326171875 220.1199951171875 500.1264343261719 220.59666442871094 500.0464172363281 221.11000061035156 C 499.97308349609375 221.61666870117188 499.91973876953125 222.15333557128906 499.88641357421875 222.72000122070312 C 499.85308837890625 223.2866668701172 499.83642578125 223.86000061035156 499.83642578125 224.44000244140625 ZM 521.5518188476562 230.89999389648438 C 522.7251586914062 230.86000061035156 523.698486328125 230.72332763671875 524.4718627929688 230.49000549316406 C 525.2451782226562 230.2566680908203 525.86181640625 229.8800048828125 526.3218383789062 229.36000061035156 C 526.7818603515625 228.84666442871094 527.1085205078125 228.1699981689453 527.3018188476562 227.3300018310547 C 527.4951782226562 226.49000549316406 527.5918579101562 225.43666076660156 527.5918579101562 224.1699981689453 C 527.5918579101562 223.31666564941406 527.5418090820312 222.57000732421875 527.4418334960938 221.92999267578125 C 527.3418579101562 221.2899932861328 527.1884765625 220.7433319091797 526.9818115234375 220.2899932861328 C 526.775146484375 219.8300018310547 526.5118408203125 219.4499969482422 526.1918334960938 219.14999389648438 C 525.8651733398438 218.85000610351562 525.478515625 218.6133270263672 525.0318603515625 218.44000244140625 C 524.5851440429688 218.26666259765625 524.0751953125 218.14666748046875 523.5018310546875 218.0800018310547 C 522.9218139648438 218.0066680908203 522.2718505859375 217.97000122070312 521.5518188476562 217.97000122070312 L 521.5518188476562 216.8699951171875 L 540.5418090820312 216.8699951171875 C 543.468505859375 216.8699951171875 545.978515625 216.94000244140625 548.0718383789062 217.0800018310547 C 550.1651611328125 217.2133331298828 551.8818359375 217.47332763671875 553.2218627929688 217.86000061035156 C 554.5618286132812 218.24000549316406 555.545166015625 218.77333068847656 556.1718139648438 219.4600067138672 C 556.80517578125 220.13999938964844 557.121826171875 221.02667236328125 557.121826171875 222.1199951171875 C 557.121826171875 222.80667114257812 557.0084838867188 223.4066619873047 556.7818603515625 223.9199981689453 C 556.55517578125 224.43333435058594 556.2351684570312 224.8699951171875 555.8218383789062 225.22999572753906 C 555.4151611328125 225.59666442871094 554.9251708984375 225.89666748046875 554.351806640625 226.1300048828125 C 553.7785034179688 226.3633270263672 553.1451416015625 226.5500030517578 552.4518432617188 226.69000244140625 C 551.7584838867188 226.82333374023438 551.0184936523438 226.9166717529297 550.2318115234375 226.97000122070312 C 549.4518432617188 227.01666259765625 548.6384887695312 227.0399932861328 547.7918090820312 227.0399932861328 C 547.0784912109375 227.0399932861328 546.3884887695312 227.02667236328125 545.7218627929688 227 C 545.05517578125 226.97332763671875 544.40185546875 226.94332885742188 543.7618408203125 226.91000366210938 C 543.121826171875 226.8766632080078 542.4851684570312 226.8433380126953 541.851806640625 226.80999755859375 C 541.218505859375 226.77667236328125 540.5818481445312 226.75332641601562 539.9418334960938 226.74000549316406 C 540.0684814453125 227.4933319091797 540.2785034179688 228.1266632080078 540.5718383789062 228.63999938964844 C 540.871826171875 229.15333557128906 541.2918090820312 229.57000732421875 541.8318481445312 229.88999938964844 C 542.3784790039062 230.2100067138672 543.0584716796875 230.4499969482422 543.871826171875 230.61000061035156 C 544.6851806640625 230.76333618164062 545.6785278320312 230.86000061035156 546.851806640625 230.89999389648438 L 546.851806640625 232 L 521.5518188476562 232 L 521.5518188476562 230.89999389648438 M 539.8018188476562 225.2899932861328 C 540.4951782226562 225.23666381835938 541.1318359375 225.13999938964844 541.7118530273438 225 C 542.2985229492188 224.85333251953125 542.7985229492188 224.64334106445312 543.2118530273438 224.3699951171875 C 543.6318359375 224.08999633789062 543.95849609375 223.74000549316406 544.1918334960938 223.32000732421875 C 544.4185180664062 222.89334106445312 544.5318603515625 222.3766632080078 544.5318603515625 221.77000427246094 C 544.5318603515625 221.09666442871094 544.4218139648438 220.5433349609375 544.2018432617188 220.11000061035156 C 543.988525390625 219.67666625976562 543.6751708984375 219.3300018310547 543.2618408203125 219.07000732421875 C 542.8551635742188 218.80999755859375 542.3551635742188 218.6233367919922 541.7618408203125 218.50999450683594 C 541.1751708984375 218.39666748046875 540.5118408203125 218.32333374023438 539.7718505859375 218.2899932861328 L 539.7718505859375 224.1699981689453 C 539.7718505859375 224.3766632080078 539.7718505859375 224.57000732421875 539.7718505859375 224.75 C 539.7718505859375 224.92999267578125 539.7818603515625 225.11000061035156 539.8018188476562 225.2899932861328 Z" transform="matrix(1.247292399406433, 0, 0, 1.247292399406433, -227.7964630126953, -61.21299362182617)" style="fill: rgb(51, 51, 51); white-space: pre; color: rgb(51, 51, 51);"/><g transform="matrix(0.3356245260485755, 0, 0, 0.3356245260485755, 42.706270757645825, -33.33085135496986)"><g transform="matrix(1, 0, 0, 1, 0, 0)"><path class="st1" d="M758,754.6c-79.7,0-144.3-64.6-144.3-144.3c0-27.4,7.6-53,20.9-74.8c-56.9,19.3-97.9,73.2-97.9,136.6&#10;&#9;&#9;&#9;c0,79.7,64.6,144.3,144.3,144.3c52.3,0,98.1-27.8,123.4-69.5C789.8,751.9,774.2,754.6,758,754.6z" style="fill: rgb(251, 209, 8);" transform="matrix(1, 0, 0, 1, 0, 0)"/><path d="M 651.599976 743.799988 A 26 26 0 0 1 625.599976 769.799988 A 26 26 0 0 1 599.599976 743.799988 A 26 26 0 0 1 625.599976 717.799988 A 26 26 0 0 1 651.599976 743.799988 Z" class="st4" style="fill: rgb(236, 182, 30);" transform="matrix(1, 0, 0, 1, 0, 0)"/><path d="M 672.200025 778.5 A 10.8 10.8 0 0 1 661.400024 789.3 A 10.8 10.8 0 0 1 650.600024 778.5 A 10.8 10.8 0 0 1 661.400024 767.7 A 10.8 10.8 0 0 1 672.200025 778.5 Z" class="st4" style="fill: rgb(236, 182, 30);" transform="matrix(1, 0, 0, 1, 0, 0)"/><path d="M 740.6 779.599976 A 7.6 7.6 0 0 1 733 787.199975 A 7.6 7.6 0 0 1 725.4 779.599976 A 7.6 7.6 0 0 1 733 771.999976 A 7.6 7.6 0 0 1 740.6 779.599976 Z" class="st4" style="fill: rgb(236, 182, 30);" transform="matrix(1, 0, 0, 1, 0, 0)"/><path d="M 598.500025 614.700012 A 14.1 14.1 0 0 1 584.400024 628.800013 A 14.1 14.1 0 0 1 570.300024 614.700012 A 14.1 14.1 0 0 1 584.400024 600.600012 A 14.1 14.1 0 0 1 598.500025 614.700012 Z" class="st4" style="fill: rgb(236, 182, 30);" transform="matrix(1, 0, 0, 1, 0, 0)"/><path class="st1" d="M694.1,621.6l5.4,16.7c0.8,2.4,3,4,5.5,4h17.6c5.6,0,8,7.2,3.4,10.5l-14.2,10.3c-2,1.5-2.9,4.1-2.1,6.5&#10;&#9;&#9;&#9;l5.4,16.7c1.7,5.4-4.4,9.8-8.9,6.5L692,682.5c-2-1.5-4.8-1.5-6.8,0l-14.2,10.3c-4.6,3.3-10.7-1.1-8.9-6.5l5.4-16.7&#10;&#9;&#9;&#9;c0.8-2.4-0.1-5-2.1-6.5l-14.2-10.3c-4.6-3.3-2.2-10.5,3.4-10.5h17.6c2.5,0,4.7-1.6,5.5-4l5.4-16.7&#10;&#9;&#9;&#9;C684.8,616.2,692.4,616.2,694.1,621.6z" style="fill: rgb(251, 209, 8);" transform="matrix(1, 0, 0, 1, 0, 0)"/><path class="st1" d="M754.1,581.5l4,12.4c0.6,1.8,2.2,3,4.1,3h13.1c4.2,0,5.9,5.4,2.5,7.8l-10.6,7.7c-1.5,1.1-2.2,3.1-1.6,4.8&#10;&#9;&#9;&#9;l4,12.4c1.3,4-3.3,7.3-6.7,4.8l-10.6-7.7c-1.5-1.1-3.6-1.1-5.1,0l-10.6,7.7c-3.4,2.5-8-0.9-6.7-4.8l4-12.4&#10;&#9;&#9;&#9;c0.6-1.8-0.1-3.7-1.6-4.8l-10.6-7.7c-3.4-2.5-1.6-7.8,2.5-7.8h13.1c1.9,0,3.5-1.2,4.1-3l4-12.4&#10;&#9;&#9;&#9;C747.2,577.5,752.8,577.5,754.1,581.5z" style="fill: rgb(251, 209, 8);" transform="matrix(1, 0, 0, 1, 0, 0)"/></g></g></svg>