<?xml version="1.0" encoding="utf-8"?>
<svg id="master-artboard" xmlns="http://www.w3.org/2000/svg" viewBox="0 0 500 500" width="500px" height="500px"><defs><style id="ee-google-fonts">@import url(https://fonts.googleapis.com/css?family=Asset:400);</style></defs><rect id="ee-background" x="0" y="0" width="500" height="500" style="fill: white; fill-opacity: 0; pointer-events: none;"/><path d="M 199.36563110351562 221.91000366210938 C 199.36563110351562 220.3699951171875 199.66229248046875 219.03334045410156 200.25563049316406 217.89999389648438 C 200.84230041503906 216.75999450683594 201.6489715576172 215.7833251953125 202.67562866210938 214.97000122070312 C 203.70230102539062 214.1566619873047 204.91896057128906 213.49000549316406 206.3256378173828 212.97000122070312 C 207.7256317138672 212.4499969482422 209.24229431152344 212.0333251953125 210.87562561035156 211.72000122070312 C 212.50230407714844 211.413330078125 214.20896911621094 211.20333862304688 215.99563598632812 211.08999633789062 C 217.78897094726562 210.97666931152344 219.58230590820312 210.9199981689453 221.37562561035156 210.9199981689453 C 223.16896057128906 210.9199981689453 224.95896911621094 210.97666931152344 226.74563598632812 211.08999633789062 C 228.53897094726562 211.20333862304688 230.25230407714844 211.413330078125 231.88563537597656 211.72000122070312 C 233.5189666748047 212.0333251953125 235.03562927246094 212.4499969482422 236.43563842773438 212.97000122070312 C 237.84230041503906 213.49000549316406 239.0589599609375 214.1566619873047 240.08563232421875 214.97000122070312 C 241.1123046875 215.7833251953125 241.91896057128906 216.75999450683594 242.50563049316406 217.89999389648438 C 243.09896850585938 219.03334045410156 243.3956298828125 220.3699951171875 243.3956298828125 221.91000366210938 C 243.3956298828125 223.44332885742188 243.09896850585938 224.77667236328125 242.50563049316406 225.91000366210938 C 241.91896057128906 227.0500030517578 241.1123046875 228.02667236328125 240.08563232421875 228.83999633789062 C 239.0589599609375 229.65333557128906 237.84230041503906 230.32000732421875 236.43563842773438 230.83999633789062 C 235.03562927246094 231.36000061035156 233.5189666748047 231.77667236328125 231.88563537597656 232.08999633789062 C 230.25230407714844 232.39666748046875 228.53897094726562 232.60667419433594 226.74563598632812 232.72000122070312 C 224.95896911621094 232.8333282470703 223.16896057128906 232.88999938964844 221.37562561035156 232.88999938964844 C 219.58230590820312 232.88999938964844 217.78897094726562 232.8333282470703 215.99563598632812 232.72000122070312 C 214.20896911621094 232.60667419433594 212.50230407714844 232.39666748046875 210.87562561035156 232.08999633789062 C 209.24229431152344 231.77667236328125 207.7256317138672 231.36000061035156 206.3256378173828 230.83999633789062 C 204.91896057128906 230.32000732421875 203.70230102539062 229.65333557128906 202.67562866210938 228.83999633789062 C 201.6489715576172 228.02667236328125 200.84230041503906 227.0500030517578 200.25563049316406 225.91000366210938 C 199.66229248046875 224.77667236328125 199.36563110351562 223.44332885742188 199.36563110351562 221.91000366210938 M 217.6056365966797 221.91000366210938 C 217.6056365966797 223.22332763671875 217.6522979736328 224.44332885742188 217.74563598632812 225.57000732421875 C 217.8456268310547 226.69667053222656 218.0323028564453 227.6699981689453 218.30563354492188 228.49000549316406 C 218.57896423339844 229.30999755859375 218.95562744140625 229.95333862304688 219.43563842773438 230.4199981689453 C 219.91563415527344 230.8866729736328 220.53562927246094 231.1199951171875 221.29562377929688 231.1199951171875 C 222.05563354492188 231.1199951171875 222.68563842773438 230.8866729736328 223.18563842773438 230.4199981689453 C 223.67897033691406 229.95333862304688 224.07229614257812 229.30999755859375 224.36563110351562 228.49000549316406 C 224.65896606445312 227.6699981689453 224.86563110351562 226.69667053222656 224.98562622070312 225.57000732421875 C 225.1056365966797 224.44332885742188 225.16563415527344 223.22332763671875 225.16563415527344 221.91000366210938 C 225.16563415527344 220.58999633789062 225.1056365966797 219.36666870117188 224.98562622070312 218.24000549316406 C 224.86563110351562 217.1133270263672 224.65896606445312 216.13999938964844 224.36563110351562 215.32000732421875 C 224.07229614257812 214.4933319091797 223.67897033691406 213.84666442871094 223.18563842773438 213.3800048828125 C 222.68563842773438 212.9199981689453 222.05563354492188 212.69000244140625 221.29562377929688 212.69000244140625 C 220.7823028564453 212.69000244140625 220.33563232421875 212.80999755859375 219.95562744140625 213.0500030517578 C 219.5756378173828 213.29000854492188 219.24896240234375 213.6199951171875 218.9756317138672 214.04000854492188 C 218.70896911621094 214.45999145507812 218.48562622070312 214.9633331298828 218.30563354492188 215.5500030517578 C 218.12562561035156 216.1366729736328 217.98562622070312 216.77000427246094 217.88563537597656 217.4499969482422 C 217.77896118164062 218.1366729736328 217.70562744140625 218.85665893554688 217.66563415527344 219.61000061035156 C 217.62562561035156 220.3699951171875 217.6056365966797 221.1366729736328 217.6056365966797 221.91000366210938 ZM 246.60287475585938 230.52999877929688 C 248.16287231445312 230.47666931152344 249.45953369140625 230.2933349609375 250.4928741455078 229.97999572753906 C 251.5261993408203 229.6666717529297 252.3495330810547 229.1666717529297 252.96286010742188 228.47999572753906 C 253.58287048339844 227.7933349609375 254.01953125 226.8866729736328 254.2728729248047 225.75999450683594 C 254.53286743164062 224.63999938964844 254.66287231445312 223.23666381835938 254.66287231445312 221.5500030517578 C 254.66287231445312 220.41000366210938 254.59620666503906 219.413330078125 254.46286010742188 218.55999755859375 C 254.32952880859375 217.6999969482422 254.12620544433594 216.96665954589844 253.85287475585938 216.36000061035156 C 253.57286071777344 215.74667358398438 253.21620178222656 215.24000549316406 252.78286743164062 214.83999633789062 C 252.356201171875 214.44000244140625 251.84286499023438 214.1233367919922 251.2428741455078 213.88999938964844 C 250.6495361328125 213.663330078125 249.96620178222656 213.50332641601562 249.19287109375 213.41000366210938 C 248.41954040527344 213.31666564941406 247.5561981201172 213.27000427246094 246.60287475585938 213.27000427246094 L 246.60287475585938 211.8000030517578 L 271.952880859375 211.8000030517578 C 274.66619873046875 211.8000030517578 277.0928649902344 211.82000732421875 279.2328796386719 211.86000061035156 C 281.3662109375 211.89999389648438 283.24285888671875 211.97999572753906 284.86285400390625 212.10000610351562 C 286.4828796386719 212.22000122070312 287.8595275878906 212.38999938964844 288.99285888671875 212.61000061035156 C 290.13287353515625 212.8300018310547 291.0595397949219 213.1233367919922 291.7728576660156 213.49000549316406 C 292.4862060546875 213.85000610351562 293.0061950683594 214.29666137695312 293.3328552246094 214.8300018310547 C 293.6528625488281 215.3633270263672 293.8128662109375 215.99667358398438 293.8128662109375 216.72999572753906 C 293.8128662109375 217.4566650390625 293.6095275878906 218.10000610351562 293.202880859375 218.66000366210938 C 292.79620361328125 219.22000122070312 292.2228698730469 219.70333862304688 291.4828796386719 220.11000061035156 C 290.74285888671875 220.51666259765625 289.8528747558594 220.85665893554688 288.8128662109375 221.1300048828125 C 287.779541015625 221.41000366210938 286.6295471191406 221.63333129882812 285.36285400390625 221.8000030517578 C 284.1028747558594 221.96665954589844 282.7495422363281 222.086669921875 281.3028564453125 222.16000366210938 C 279.856201171875 222.23333740234375 278.34954833984375 222.27333068847656 276.7828674316406 222.27999877929688 L 283.44287109375 222.27999877929688 C 284.8362121582031 222.27999877929688 286.04620361328125 222.3300018310547 287.0728759765625 222.42999267578125 C 288.0928649902344 222.52999877929688 288.96954345703125 222.68666076660156 289.702880859375 222.89999389648438 C 290.4295349121094 223.1133270263672 291.03955078125 223.38333129882812 291.5328674316406 223.7100067138672 C 292.01953125 224.0433349609375 292.42620849609375 224.43666076660156 292.75286865234375 224.88999938964844 C 293.0728759765625 225.3433380126953 293.33953857421875 225.86000061035156 293.5528564453125 226.44000244140625 C 293.759521484375 227.02667236328125 293.952880859375 227.67999267578125 294.13287353515625 228.39999389648438 C 294.2328796386719 228.82000732421875 294.3528747558594 229.163330078125 294.49285888671875 229.42999267578125 C 294.63287353515625 229.70333862304688 294.8228759765625 229.9199981689453 295.0628662109375 230.0800018310547 C 295.3028564453125 230.24667358398438 295.606201171875 230.36000061035156 295.9728698730469 230.4199981689453 C 296.33953857421875 230.47999572753906 296.80621337890625 230.50999450683594 297.37286376953125 230.50999450683594 L 297.37286376953125 232.08999633789062 C 296.19287109375 232.22999572753906 295.1028747558594 232.35000610351562 294.1028747558594 232.4499969482422 C 293.1095275878906 232.5433349609375 292.182861328125 232.6266632080078 291.3228759765625 232.6999969482422 C 290.4628601074219 232.76666259765625 289.6595458984375 232.81666564941406 288.9128723144531 232.85000610351562 C 288.1728515625 232.8766632080078 287.46954345703125 232.88999938964844 286.8028564453125 232.88999938964844 C 285.28955078125 232.88999938964844 283.9995422363281 232.8633270263672 282.932861328125 232.80999755859375 C 281.8595275878906 232.75 280.9562072753906 232.64332580566406 280.2228698730469 232.49000549316406 C 279.4895324707031 232.3433380126953 278.8995361328125 232.14666748046875 278.452880859375 231.89999389648438 C 278.01287841796875 231.65333557128906 277.6628723144531 231.33999633789062 277.4028625488281 230.9600067138672 C 277.1495361328125 230.5800018310547 276.9628601074219 230.1266632080078 276.8428649902344 229.60000610351562 C 276.7228698730469 229.07333374023438 276.6261901855469 228.4600067138672 276.5528564453125 227.75999450683594 C 276.45953369140625 226.913330078125 276.31951904296875 226.1999969482422 276.13287353515625 225.6199951171875 C 275.9461975097656 225.0399932861328 275.6495361328125 224.56333923339844 275.24285888671875 224.19000244140625 C 274.8428649902344 223.81666564941406 274.3028564453125 223.53334045410156 273.62286376953125 223.33999633789062 C 272.9361877441406 223.14666748046875 272.04620361328125 223.01666259765625 270.952880859375 222.9499969482422 C 270.9795227050781 224.3633270263672 271.0661926269531 225.5500030517578 271.2128601074219 226.50999450683594 C 271.3528747558594 227.47666931152344 271.56951904296875 228.2566680908203 271.86285400390625 228.85000610351562 C 272.1628723144531 229.4499969482422 272.54620361328125 229.8800048828125 273.01287841796875 230.13999938964844 C 273.4862060546875 230.39999389648438 274.0661926269531 230.52999877929688 274.75286865234375 230.52999877929688 L 274.75286865234375 232 L 246.60287475585938 232 L 246.60287475585938 230.52999877929688 M 270.932861328125 221.22999572753906 C 271.9461975097656 221.19000244140625 272.8861999511719 221.10000610351562 273.75286865234375 220.9600067138672 C 274.6195373535156 220.82000732421875 275.3662109375 220.60665893554688 275.99285888671875 220.32000732421875 C 276.6195373535156 220.03334045410156 277.1095275878906 219.65333557128906 277.4628601074219 219.17999267578125 C 277.8161926269531 218.7133331298828 277.99285888671875 218.1233367919922 277.99285888671875 217.41000366210938 C 277.99285888671875 216.6699981689453 277.8228759765625 216.06666564941406 277.4828796386719 215.60000610351562 C 277.14288330078125 215.1266632080078 276.6628723144531 214.75332641601562 276.0428771972656 214.47999572753906 C 275.4228515625 214.1999969482422 274.6795349121094 214.00332641601562 273.8128662109375 213.88999938964844 C 272.9461975097656 213.77667236328125 271.9862060546875 213.70333862304688 270.932861328125 213.6699981689453 L 270.932861328125 221.22999572753906 ZM 299.79833984375 230.52999877929688 C 301.35833740234375 230.47666931152344 302.6549987792969 230.2933349609375 303.6883239746094 229.97999572753906 C 304.7216796875 229.6666717529297 305.5450134277344 229.1666717529297 306.1583251953125 228.47999572753906 C 306.7783203125 227.7933349609375 307.2149963378906 226.8866729736328 307.46832275390625 225.75999450683594 C 307.72833251953125 224.63999938964844 307.85833740234375 223.23666381835938 307.85833740234375 221.5500030517578 C 307.85833740234375 220.41000366210938 307.7916564941406 219.413330078125 307.6583251953125 218.55999755859375 C 307.5249938964844 217.6999969482422 307.3216552734375 216.96665954589844 307.04833984375 216.36000061035156 C 306.7683410644531 215.74667358398438 306.4116516113281 215.24000549316406 305.97833251953125 214.83999633789062 C 305.5516662597656 214.44000244140625 305.038330078125 214.1233367919922 304.4383239746094 213.88999938964844 C 303.8450012207031 213.663330078125 303.1616516113281 213.50332641601562 302.3883361816406 213.41000366210938 C 301.614990234375 213.31666564941406 300.7516784667969 213.27000427246094 299.79833984375 213.27000427246094 L 299.79833984375 211.8000030517578 L 325.9283447265625 211.8000030517578 C 328.69500732421875 211.8000030517578 331.11834716796875 211.8300018310547 333.1983337402344 211.88999938964844 C 335.2783203125 211.9499969482422 337.07501220703125 212.05332946777344 338.58831787109375 212.1999969482422 C 340.1016540527344 212.34666442871094 341.35833740234375 212.54000854492188 342.35833740234375 212.77999877929688 C 343.3516540527344 213.02000427246094 344.1449890136719 213.31666564941406 344.73834228515625 213.6699981689453 C 345.32501220703125 214.02999877929688 345.73834228515625 214.4499969482422 345.97833251953125 214.92999267578125 C 346.21832275390625 215.41000366210938 346.33831787109375 215.9566650390625 346.33831787109375 216.57000732421875 C 346.33831787109375 217.27667236328125 346.1116638183594 217.8866729736328 345.6583251953125 218.39999389648438 C 345.2049865722656 218.913330078125 344.5816650390625 219.3433380126953 343.788330078125 219.69000244140625 C 342.9949951171875 220.0433349609375 342.058349609375 220.32666015625 340.97833251953125 220.5399932861328 C 339.8983154296875 220.75999450683594 338.72833251953125 220.92999267578125 337.46832275390625 221.0500030517578 C 336.2149963378906 221.1699981689453 334.9049987792969 221.25332641601562 333.538330078125 221.3000030517578 C 332.1716613769531 221.33999633789062 330.79833984375 221.3633270263672 329.4183349609375 221.3699951171875 C 331.11834716796875 221.38333129882812 332.788330078125 221.4066619873047 334.4283447265625 221.44000244140625 C 336.0683288574219 221.47999572753906 337.61834716796875 221.56333923339844 339.0783386230469 221.69000244140625 C 340.538330078125 221.80999755859375 341.8883361816406 221.98666381835938 343.1283264160156 222.22000122070312 C 344.36834716796875 222.44667053222656 345.4383239746094 222.7566680908203 346.33831787109375 223.14999389648438 C 347.23834228515625 223.5433349609375 347.9383239746094 224.02667236328125 348.4383239746094 224.60000610351562 C 348.94500732421875 225.17333984375 349.1983337402344 225.86000061035156 349.1983337402344 226.66000366210938 C 349.1983337402344 227.86000061035156 348.71832275390625 228.81333923339844 347.7583312988281 229.52000427246094 C 346.7916564941406 230.22666931152344 345.35833740234375 230.76333618164062 343.4583435058594 231.1300048828125 C 341.558349609375 231.50332641601562 339.20166015625 231.74000549316406 336.3883361816406 231.83999633789062 C 333.5816650390625 231.94667053222656 330.3316650390625 232 326.6383361816406 232 L 299.79833984375 232 L 299.79833984375 230.52999877929688 M 324.58831787109375 220.25 L 324.6283264160156 220.25999450683594 C 325.6549987792969 220.24000549316406 326.5716552734375 220.17999267578125 327.3783264160156 220.0800018310547 C 328.18499755859375 219.97999572753906 328.8716735839844 219.80999755859375 329.4383239746094 219.57000732421875 C 329.9983215332031 219.32333374023438 330.4316711425781 218.98666381835938 330.73834228515625 218.55999755859375 C 331.038330078125 218.13999938964844 331.1883239746094 217.59666442871094 331.1883239746094 216.92999267578125 C 331.1883239746094 216.25 331.0249938964844 215.6999969482422 330.6983337402344 215.27999877929688 C 330.364990234375 214.85333251953125 329.8949890136719 214.52333068847656 329.288330078125 214.29000854492188 C 328.67498779296875 214.05667114257812 327.93499755859375 213.89666748046875 327.0683288574219 213.80999755859375 C 326.19500732421875 213.72999572753906 325.2149963378906 213.68333435058594 324.1283264160156 213.6699981689453 L 324.1283264160156 220.25 L 324.58831787109375 220.25 M 324.1283264160156 230 C 325.1283264160156 230 326.0950012207031 229.9633331298828 327.0283203125 229.88999938964844 C 327.96832275390625 229.81666564941406 328.79833984375 229.64334106445312 329.5183410644531 229.3699951171875 C 330.23834228515625 229.09666442871094 330.8116760253906 228.69667053222656 331.23834228515625 228.1699981689453 C 331.6716613769531 227.64334106445312 331.8883361816406 226.92666625976562 331.8883361816406 226.02000427246094 C 331.8883361816406 225.1133270263672 331.6816711425781 224.39999389648438 331.2683410644531 223.8800048828125 C 330.84832763671875 223.35333251953125 330.28167724609375 222.9600067138672 329.5683288574219 222.6999969482422 C 328.8550109863281 222.44000244140625 328.0283203125 222.27667236328125 327.08831787109375 222.2100067138672 C 326.1483459472656 222.14334106445312 325.1616516113281 222.11000061035156 324.1283264160156 222.11000061035156 L 324.1283264160156 230 ZM 350.9742736816406 230.52999877929688 C 351.2742614746094 230.52999877929688 351.68426513671875 230.44000244140625 352.2042541503906 230.25999450683594 C 352.7242736816406 230.086669921875 353.297607421875 229.80332946777344 353.92425537109375 229.41000366210938 C 354.5509338378906 229.01666259765625 355.2042541503906 228.51333618164062 355.88427734375 227.89999389648438 C 356.56427001953125 227.2866668701172 357.21759033203125 226.5366668701172 357.8442687988281 225.64999389648438 L 367.57427978515625 211.8000030517578 L 383.3642578125 211.8000030517578 L 391.8942565917969 225.3000030517578 C 392.48760986328125 226.24000549316406 393.13427734375 227.0399932861328 393.8342590332031 227.6999969482422 C 394.5342712402344 228.36666870117188 395.22760009765625 228.9066619873047 395.9142761230469 229.32000732421875 C 396.5942687988281 229.74000549316406 397.2342529296875 230.04666137695312 397.8342590332031 230.24000549316406 C 398.43426513671875 230.43333435058594 398.9375915527344 230.52999877929688 399.3442687988281 230.52999877929688 L 399.3442687988281 232 L 369.2842712402344 232 L 369.2842712402344 230.52999877929688 C 369.7442626953125 230.52999877929688 370.200927734375 230.46665954589844 370.6542663574219 230.33999633789062 C 371.10760498046875 230.2133331298828 371.5142822265625 230.02333068847656 371.874267578125 229.77000427246094 C 372.2342529296875 229.51666259765625 372.5242614746094 229.19667053222656 372.7442626953125 228.80999755859375 C 372.9576110839844 228.42333984375 373.06427001953125 227.97000122070312 373.06427001953125 227.4499969482422 C 373.06427001953125 227.22999572753906 373.0142822265625 226.94000244140625 372.9142761230469 226.5800018310547 L 360.43426513671875 226.5800018310547 C 360.3876037597656 226.72666931152344 360.3509216308594 226.86000061035156 360.32427978515625 226.97999572753906 C 360.30426025390625 227.0933380126953 360.2942810058594 227.1999969482422 360.2942810058594 227.3000030517578 C 360.2942810058594 227.8333282470703 360.4042663574219 228.30332946777344 360.624267578125 228.7100067138672 C 360.8442687988281 229.11000061035156 361.13427734375 229.44667053222656 361.4942626953125 229.72000122070312 C 361.8542785644531 229.98666381835938 362.26092529296875 230.19000244140625 362.7142639160156 230.3300018310547 C 363.1676025390625 230.4633331298828 363.63092041015625 230.52999877929688 364.1042785644531 230.52999877929688 L 364.1042785644531 232 L 350.9742736816406 232 L 350.9742736816406 230.52999877929688 M 371.9742736816406 224.41000366210938 C 371.7542724609375 223.99000549316406 371.4975891113281 223.5066680908203 371.2042541503906 222.9600067138672 C 370.91094970703125 222.413330078125 370.5675964355469 221.7899932861328 370.17425537109375 221.08999633789062 C 369.7742614746094 220.38999938964844 369.3276062011719 219.60665893554688 368.8342590332031 218.74000549316406 C 368.3409423828125 217.8800048828125 367.78094482421875 216.9166717529297 367.1542663574219 215.85000610351562 C 366.43426513671875 216.93666076660156 365.78094482421875 217.9166717529297 365.19427490234375 218.7899932861328 C 364.6142578125 219.6699981689453 364.0942687988281 220.4566650390625 363.63427734375 221.14999389648438 C 363.1809387207031 221.85000610351562 362.78759765625 222.46665954589844 362.4542541503906 223 C 362.1142578125 223.53334045410156 361.82427978515625 224.00332641601562 361.5842590332031 224.41000366210938 L 371.9742736816406 224.41000366210938 ZM 400.98822021484375 230.52999877929688 C 402.5549011230469 230.47666931152344 403.8548889160156 230.2933349609375 404.8882141113281 229.97999572753906 C 405.9215393066406 229.6666717529297 406.744873046875 229.1666717529297 407.35821533203125 228.47999572753906 C 407.97821044921875 227.7933349609375 408.4148864746094 226.8866729736328 408.668212890625 225.75999450683594 C 408.9215393066406 224.63999938964844 409.0482177734375 223.23666381835938 409.0482177734375 221.5500030517578 C 409.0482177734375 220.41000366210938 408.9848937988281 219.413330078125 408.85821533203125 218.55999755859375 C 408.7248840332031 217.6999969482422 408.52154541015625 216.96665954589844 408.24822998046875 216.36000061035156 C 407.9682312011719 215.74667358398438 407.6115417480469 215.24000549316406 407.17822265625 214.83999633789062 C 406.744873046875 214.44000244140625 406.2315673828125 214.1233367919922 405.6382141113281 213.88999938964844 C 405.0448913574219 213.663330078125 404.3615417480469 213.50332641601562 403.5882263183594 213.41000366210938 C 402.81488037109375 213.31666564941406 401.9482116699219 213.27000427246094 400.98822021484375 213.27000427246094 L 400.98822021484375 211.8000030517578 L 428.3182067871094 211.8000030517578 L 442.10821533203125 223 L 442.1382141113281 221.5500030517578 C 442.1382141113281 219.836669921875 441.98822021484375 218.44332885742188 441.688232421875 217.3699951171875 C 441.3948974609375 216.2899932861328 440.92156982421875 215.44667053222656 440.2682189941406 214.83999633789062 C 439.6215515136719 214.22666931152344 438.79156494140625 213.80999755859375 437.7782287597656 213.58999633789062 C 436.7582092285156 213.3766632080078 435.5282287597656 213.27000427246094 434.0882263183594 213.27000427246094 L 434.0882263183594 211.8000030517578 L 451.3082275390625 211.8000030517578 L 451.3082275390625 213.27000427246094 C 450.34820556640625 213.27000427246094 449.5015563964844 213.31666564941406 448.7682189941406 213.41000366210938 C 448.04156494140625 213.50332641601562 447.408203125 213.663330078125 446.86822509765625 213.88999938964844 C 446.33489990234375 214.1233367919922 445.8882141113281 214.44000244140625 445.5282287597656 214.83999633789062 C 445.168212890625 215.24000549316406 444.87823486328125 215.74667358398438 444.658203125 216.36000061035156 C 444.438232421875 216.96665954589844 444.28155517578125 217.6999969482422 444.188232421875 218.55999755859375 C 444.0948791503906 219.413330078125 444.0482177734375 220.41000366210938 444.0482177734375 221.5500030517578 L 444.0482177734375 232 L 427.98822021484375 232 C 426.10821533203125 230.3733367919922 424.1982116699219 228.72999572753906 422.2582092285156 227.07000732421875 C 421.4315490722656 226.3633270263672 420.5615539550781 225.6133270263672 419.6482238769531 224.82000732421875 C 418.72821044921875 224.03334045410156 417.7948913574219 223.23666381835938 416.84820556640625 222.42999267578125 C 415.9082336425781 221.6233367919922 414.9682312011719 220.81666564941406 414.0282287597656 220.00999450683594 C 413.0882263183594 219.2100067138672 412.1815490722656 218.43333435058594 411.3082275390625 217.67999267578125 C 411.1815490722656 218.1999969482422 411.0882263183594 218.77999877929688 411.0282287597656 219.4199981689453 C 410.9748840332031 220.05332946777344 410.9482116699219 220.76333618164062 410.9482116699219 221.5500030517578 C 410.9482116699219 223.23666381835938 411.07489013671875 224.63999938964844 411.3282165527344 225.75999450683594 C 411.58154296875 226.8866729736328 412.0182189941406 227.7933349609375 412.6382141113281 228.47999572753906 C 413.2515563964844 229.1666717529297 414.07489013671875 229.6666717529297 415.10821533203125 229.97999572753906 C 416.14154052734375 230.2933349609375 417.43487548828125 230.47666931152344 418.98822021484375 230.52999877929688 L 418.98822021484375 232 L 400.98822021484375 232 L 400.98822021484375 230.52999877929688 ZM 453.958984375 223.5800018310547 C 453.9323425292969 223.30667114257812 453.9123229980469 223.0399932861328 453.89898681640625 222.77999877929688 C 453.8856506347656 222.52000427246094 453.8789978027344 222.25332641601562 453.8789978027344 221.97999572753906 C 453.8789978027344 221.72000122070312 453.8856506347656 221.4566650390625 453.89898681640625 221.19000244140625 C 453.9123229980469 220.92333984375 453.9323425292969 220.6566619873047 453.958984375 220.38999938964844 C 454.12567138671875 220.4166717529297 454.3890075683594 220.44667053222656 454.7489929199219 220.47999572753906 C 455.1090087890625 220.51333618164062 455.5356750488281 220.5399932861328 456.02899169921875 220.55999755859375 C 456.5156555175781 220.5800018310547 457.0523376464844 220.59666442871094 457.6390075683594 220.61000061035156 C 458.2256774902344 220.6300048828125 458.8190002441406 220.64334106445312 459.41900634765625 220.64999389648438 C 460.0256652832031 220.663330078125 460.62567138671875 220.67333984375 461.218994140625 220.67999267578125 C 461.8056640625 220.67999267578125 462.3489990234375 220.68333435058594 462.8489990234375 220.69000244140625 C 463.3489990234375 220.69667053222656 463.78900146484375 220.6999969482422 464.16900634765625 220.6999969482422 C 464.5423278808594 220.6999969482422 464.8190002441406 220.6999969482422 464.9989929199219 220.6999969482422 C 465.31231689453125 220.6999969482422 465.7690124511719 220.69667053222656 466.3689880371094 220.69000244140625 C 466.968994140625 220.68333435058594 467.6390075683594 220.67666625976562 468.3789978027344 220.6699981689453 C 469.1189880371094 220.6566619873047 469.8890075683594 220.64334106445312 470.6889953613281 220.6300048828125 C 471.4823303222656 220.61666870117188 472.239013671875 220.59666442871094 472.958984375 220.57000732421875 C 473.6789855957031 220.5433349609375 474.3190002441406 220.51666259765625 474.8789978027344 220.49000549316406 C 475.4389953613281 220.4633331298828 475.84234619140625 220.42999267578125 476.0889892578125 220.38999938964844 C 476.1023254394531 220.4633331298828 476.1123352050781 220.57000732421875 476.1189880371094 220.7100067138672 C 476.13232421875 220.85000610351562 476.142333984375 220.99667358398438 476.14898681640625 221.14999389648438 C 476.1556701660156 221.30999755859375 476.15899658203125 221.46665954589844 476.15899658203125 221.6199951171875 C 476.1656799316406 221.76666259765625 476.16900634765625 221.8866729736328 476.16900634765625 221.97999572753906 C 476.16900634765625 222.06666564941406 476.1656799316406 222.18333435058594 476.15899658203125 222.3300018310547 C 476.15899658203125 222.47666931152344 476.1556701660156 222.6266632080078 476.14898681640625 222.77999877929688 C 476.142333984375 222.94000244140625 476.13232421875 223.08999633789062 476.1189880371094 223.22999572753906 C 476.1123352050781 223.3699951171875 476.1023254394531 223.48666381835938 476.0889892578125 223.5800018310547 C 475.8489990234375 223.54666137695312 475.44232177734375 223.51666259765625 474.8689880371094 223.49000549316406 C 474.295654296875 223.4566650390625 473.6390075683594 223.42666625976562 472.89898681640625 223.39999389648438 C 472.15899658203125 223.3733367919922 471.37567138671875 223.35333251953125 470.54901123046875 223.33999633789062 C 469.72900390625 223.32000732421875 468.9456787109375 223.30667114257812 468.1990051269531 223.3000030517578 C 467.458984375 223.2866668701172 466.8023376464844 223.27667236328125 466.22900390625 223.27000427246094 C 465.64898681640625 223.27000427246094 465.239013671875 223.27000427246094 464.9989929199219 223.27000427246094 C 464.79901123046875 223.27000427246094 464.50567626953125 223.27000427246094 464.1189880371094 223.27000427246094 C 463.7323303222656 223.27667236328125 463.28900146484375 223.28334045410156 462.78900146484375 223.2899932861328 C 462.28900146484375 223.29666137695312 461.7423400878906 223.30332946777344 461.14898681640625 223.30999755859375 C 460.56231689453125 223.32333374023438 459.9723205566406 223.336669921875 459.3789978027344 223.35000610351562 C 458.7856750488281 223.35665893554688 458.1990051269531 223.36666870117188 457.6189880371094 223.3800048828125 C 457.03900146484375 223.39999389648438 456.50567626953125 223.4199981689453 456.0190124511719 223.44000244140625 C 455.5323181152344 223.4600067138672 455.1090087890625 223.47999572753906 454.7489929199219 223.5 C 454.3890075683594 223.52000427246094 454.12567138671875 223.54666137695312 453.958984375 223.5800018310547 ZM 482.93658447265625 232.88999938964844 C 482.8165588378906 232.6699981689453 482.7065734863281 232.36666870117188 482.6065673828125 231.97999572753906 C 482.4999084472656 231.586669921875 482.4032287597656 231.14999389648438 482.3165588378906 230.6699981689453 C 482.22991943359375 230.19000244140625 482.1465759277344 229.69332885742188 482.0665588378906 229.17999267578125 C 481.986572265625 228.66000366210938 481.919921875 228.1566619873047 481.8665771484375 227.6699981689453 C 481.813232421875 227.18333435058594 481.77325439453125 226.74000549316406 481.74658203125 226.33999633789062 C 481.7265625 225.94000244140625 481.7165832519531 225.6199951171875 481.7165832519531 225.3800048828125 L 483.30657958984375 225.3800048828125 C 483.6532287597656 226.0800018310547 484.1065673828125 226.6999969482422 484.66656494140625 227.24000549316406 C 485.2332458496094 227.7866668701172 485.8765869140625 228.26333618164062 486.5965881347656 228.6699981689453 C 487.3165588378906 229.07666015625 488.09991455078125 229.4199981689453 488.9465637207031 229.6999969482422 C 489.78656005859375 229.97999572753906 490.6632385253906 230.2066650390625 491.5765686035156 230.3800048828125 C 492.4898986816406 230.55332946777344 493.419921875 230.67999267578125 494.3665771484375 230.75999450683594 C 495.313232421875 230.8333282470703 496.24322509765625 230.8699951171875 497.1565856933594 230.8699951171875 C 498.6632385253906 230.8699951171875 499.91656494140625 230.80667114257812 500.91656494140625 230.67999267578125 C 501.91656494140625 230.54666137695312 502.71990966796875 230.3699951171875 503.3265686035156 230.14999389648438 C 503.9332275390625 229.92333984375 504.3598937988281 229.66000366210938 504.6065673828125 229.36000061035156 C 504.8598937988281 229.05332946777344 504.986572265625 228.72332763671875 504.986572265625 228.3699951171875 C 504.986572265625 227.85665893554688 504.7665710449219 227.44000244140625 504.3265686035156 227.1199951171875 C 503.8865661621094 226.80667114257812 503.2899169921875 226.55667114257812 502.53656005859375 226.3699951171875 C 501.7765808105469 226.17666625976562 500.89324951171875 226.02999877929688 499.8865661621094 225.92999267578125 C 498.8799133300781 225.82333374023438 497.813232421875 225.72999572753906 496.68658447265625 225.64999389648438 C 495.5532531738281 225.56333923339844 494.389892578125 225.47000122070312 493.1965637207031 225.3699951171875 C 492.0099182128906 225.27000427246094 490.84991455078125 225.1233367919922 489.7165832519531 224.92999267578125 C 488.583251953125 224.73666381835938 487.51324462890625 224.48333740234375 486.5065612792969 224.1699981689453 C 485.4999084472656 223.85000610351562 484.6199035644531 223.43333435058594 483.8665771484375 222.9199981689453 C 483.1065673828125 222.413330078125 482.5099182128906 221.7866668701172 482.0765686035156 221.0399932861328 C 481.6365661621094 220.2933349609375 481.41656494140625 219.39334106445312 481.41656494140625 218.33999633789062 C 481.41656494140625 217.3800048828125 481.6465759277344 216.52999877929688 482.1065673828125 215.79000854492188 C 482.5665588378906 215.05667114257812 483.2032470703125 214.413330078125 484.0165710449219 213.86000061035156 C 484.82989501953125 213.30667114257812 485.7998962402344 212.8433380126953 486.92657470703125 212.47000122070312 C 488.0532531738281 212.08999633789062 489.2799072265625 211.7866668701172 490.6065673828125 211.55999755859375 C 491.9399108886719 211.3333282470703 493.34991455078125 211.1699981689453 494.8365783691406 211.07000732421875 C 496.3232421875 210.97000122070312 497.83990478515625 210.9199981689453 499.3865661621094 210.9199981689453 C 500.6132507324219 210.9199981689453 501.81658935546875 210.9566650390625 502.99658203125 211.02999877929688 C 504.17657470703125 211.10333251953125 505.31658935546875 211.17999267578125 506.41656494140625 211.25999450683594 C 507.5165710449219 211.34666442871094 508.5699157714844 211.42666625976562 509.5765686035156 211.5 C 510.583251953125 211.57333374023438 511.53656005859375 211.61000061035156 512.4365844726562 211.61000061035156 C 512.99658203125 211.61000061035156 513.4899291992188 211.60000610351562 513.9165649414062 211.5800018310547 C 514.3365478515625 211.55332946777344 514.74658203125 211.51666259765625 515.1465454101562 211.47000122070312 C 515.5399169921875 211.4166717529297 515.9398803710938 211.34666442871094 516.3465576171875 211.25999450683594 C 516.7532348632812 211.1666717529297 517.2232666015625 211.05332946777344 517.756591796875 210.9199981689453 C 517.8699340820312 211.14666748046875 517.9765625 211.44000244140625 518.0765991210938 211.8000030517578 C 518.1765747070312 212.15333557128906 518.2698974609375 212.5433349609375 518.3565673828125 212.97000122070312 C 518.4432373046875 213.39666748046875 518.5232543945312 213.83999633789062 518.5965576171875 214.3000030517578 C 518.669921875 214.75999450683594 518.7332153320312 215.20333862304688 518.7865600585938 215.6300048828125 C 518.8399047851562 216.05667114257812 518.8798828125 216.4566650390625 518.9065551757812 216.8300018310547 C 518.9332275390625 217.19667053222656 518.9465942382812 217.5 518.9465942382812 217.74000549316406 L 517.1765747070312 217.74000549316406 C 517.0299072265625 217.3333282470703 516.74658203125 216.92666625976562 516.3265991210938 216.52000427246094 C 515.89990234375 216.1133270263672 515.3599243164062 215.72332763671875 514.70654296875 215.35000610351562 C 514.0465698242188 214.97000122070312 513.2899169921875 214.6199951171875 512.4365844726562 214.3000030517578 C 511.5765686035156 213.97332763671875 510.64324951171875 213.69000244140625 509.6365661621094 213.4499969482422 C 508.62322998046875 213.20999145507812 507.54656982421875 213.02333068847656 506.4065856933594 212.88999938964844 C 505.27325439453125 212.7566680908203 504.09991455078125 212.69000244140625 502.8865661621094 212.69000244140625 C 502.1999206542969 212.69000244140625 501.5932312011719 212.75332641601562 501.06658935546875 212.8800048828125 C 500.5399169921875 213 500.0932312011719 213.163330078125 499.7265625 213.3699951171875 C 499.3598937988281 213.57000732421875 499.083251953125 213.80332946777344 498.8965759277344 214.07000732421875 C 498.70989990234375 214.336669921875 498.6165771484375 214.61000061035156 498.6165771484375 214.88999938964844 C 498.6165771484375 215.50999450683594 498.8232421875 216.01333618164062 499.236572265625 216.39999389648438 C 499.6565856933594 216.7933349609375 500.2265625 217.10665893554688 500.9465637207031 217.33999633789062 C 501.66656494140625 217.5800018310547 502.50323486328125 217.75999450683594 503.4565734863281 217.8800048828125 C 504.409912109375 218.0066680908203 505.42657470703125 218.11666870117188 506.5065612792969 218.2100067138672 C 507.5865783691406 218.30332946777344 508.6932373046875 218.40333557128906 509.8265686035156 218.50999450683594 C 510.95989990234375 218.61666870117188 512.0665893554688 218.76666259765625 513.1465454101562 218.9600067138672 C 514.2265625 219.14666748046875 515.2432250976562 219.40333557128906 516.1965942382812 219.72999572753906 C 517.14990234375 220.05667114257812 517.986572265625 220.48333740234375 518.70654296875 221.00999450683594 C 519.4265747070312 221.5433349609375 519.99658203125 222.20333862304688 520.4165649414062 222.99000549316406 C 520.8365478515625 223.77667236328125 521.0465698242188 224.72999572753906 521.0465698242188 225.85000610351562 C 521.0465698242188 226.8699951171875 520.8065795898438 227.75332641601562 520.3265991210938 228.5 C 519.8465576171875 229.24667358398438 519.179931640625 229.8800048828125 518.3265991210938 230.39999389648438 C 517.4732666015625 230.92666625976562 516.4699096679688 231.35000610351562 515.3165893554688 231.6699981689453 C 514.1565551757812 231.99667358398438 512.9032592773438 232.25 511.55657958984375 232.42999267578125 C 510.20989990234375 232.61000061035156 508.79656982421875 232.73333740234375 507.31658935546875 232.8000030517578 C 505.8365783691406 232.86000061035156 504.3432312011719 232.88999938964844 502.8365783691406 232.88999938964844 C 501.50323486328125 232.88999938964844 500.24658203125 232.85333251953125 499.06658935546875 232.77999877929688 C 497.8865661621094 232.7066650390625 496.71990966796875 232.6300048828125 495.56658935546875 232.5500030517578 C 494.4065856933594 232.4633331298828 493.22991943359375 232.38333129882812 492.03656005859375 232.30999755859375 C 490.8432312011719 232.23666381835938 489.5665588378906 232.1999969482422 488.2065734863281 232.1999969482422 C 487.6532287597656 232.1999969482422 487.16656494140625 232.2100067138672 486.74658203125 232.22999572753906 C 486.3199157714844 232.2566680908203 485.9132385253906 232.2933349609375 485.5265808105469 232.33999633789062 C 485.13323974609375 232.39332580566406 484.7332458496094 232.46665954589844 484.3265686035156 232.55999755859375 C 483.919921875 232.64666748046875 483.4565734863281 232.7566680908203 482.93658447265625 232.88999938964844 ZM 524.2249145507812 230.52999877929688 C 525.784912109375 230.47666931152344 527.0816040039062 230.2933349609375 528.1149291992188 229.97999572753906 C 529.1482543945312 229.6666717529297 529.9715576171875 229.1666717529297 530.5848999023438 228.47999572753906 C 531.2048950195312 227.7933349609375 531.6416015625 226.8866729736328 531.8948974609375 225.75999450683594 C 532.1549072265625 224.63999938964844 532.284912109375 223.23666381835938 532.284912109375 221.5500030517578 C 532.284912109375 220.41000366210938 532.21826171875 219.413330078125 532.0848999023438 218.55999755859375 C 531.9515991210938 217.6999969482422 531.7482299804688 216.96665954589844 531.4749145507812 216.36000061035156 C 531.1948852539062 215.74667358398438 530.8382568359375 215.24000549316406 530.4049072265625 214.83999633789062 C 529.9782104492188 214.44000244140625 529.4649047851562 214.1233367919922 528.8649291992188 213.88999938964844 C 528.2715454101562 213.663330078125 527.5882568359375 213.50332641601562 526.8148803710938 213.41000366210938 C 526.0415649414062 213.31666564941406 525.17822265625 213.27000427246094 524.2249145507812 213.27000427246094 L 524.2249145507812 211.8000030517578 L 550.52490234375 211.8000030517578 L 550.52490234375 213.27000427246094 C 550.0982666015625 213.27000427246094 549.7582397460938 213.3733367919922 549.5048828125 213.5800018310547 C 549.2515869140625 213.7866668701172 549.0515747070312 214.17666625976562 548.9049072265625 214.75 C 548.764892578125 215.32333374023438 548.6715698242188 216.1266632080078 548.6248779296875 217.16000366210938 C 548.5782470703125 218.19332885742188 548.554931640625 219.52999877929688 548.554931640625 221.1699981689453 L 555.4749145507812 221.1699981689453 C 555.4749145507812 219.52999877929688 555.4482421875 218.19332885742188 555.3948974609375 217.16000366210938 C 555.341552734375 216.1266632080078 555.2449340820312 215.32333374023438 555.1049194335938 214.75 C 554.9649047851562 214.17666625976562 554.7682495117188 213.7866668701172 554.514892578125 213.5800018310547 C 554.2548828125 213.3733367919922 553.918212890625 213.27000427246094 553.5048828125 213.27000427246094 L 553.5048828125 211.8000030517578 L 579.77490234375 211.8000030517578 L 579.77490234375 213.27000427246094 C 578.3482666015625 213.27000427246094 577.1248779296875 213.3766632080078 576.1049194335938 213.58999633789062 C 575.091552734375 213.80999755859375 574.2615966796875 214.22666931152344 573.6149291992188 214.83999633789062 C 572.96826171875 215.44667053222656 572.4915771484375 216.2899932861328 572.1849365234375 217.3699951171875 C 571.8848876953125 218.44332885742188 571.7349243164062 219.836669921875 571.7349243164062 221.5500030517578 C 571.7349243164062 223.23666381835938 571.861572265625 224.63999938964844 572.1149291992188 225.75999450683594 C 572.3748779296875 226.8866729736328 572.8115844726562 227.7933349609375 573.4249267578125 228.47999572753906 C 574.0382690429688 229.1666717529297 574.861572265625 229.6666717529297 575.8948974609375 229.97999572753906 C 576.92822265625 230.2933349609375 578.2215576171875 230.47666931152344 579.77490234375 230.52999877929688 L 579.77490234375 232 L 553.5048828125 232 L 553.5048828125 230.52999877929688 C 553.7515869140625 230.49000549316406 553.9849243164062 230.336669921875 554.2048950195312 230.07000732421875 C 554.4249267578125 229.80332946777344 554.62158203125 229.38333129882812 554.794921875 228.80999755859375 C 554.96826171875 228.23666381835938 555.111572265625 227.48666381835938 555.2249145507812 226.55999755859375 C 555.3382568359375 225.63999938964844 555.4115600585938 224.5066680908203 555.4448852539062 223.16000366210938 L 548.5748901367188 223.16000366210938 C 548.6015625 224.5066680908203 548.6749267578125 225.63999938964844 548.794921875 226.55999755859375 C 548.9082641601562 227.48666381835938 549.0515747070312 228.23666381835938 549.2249145507812 228.80999755859375 C 549.3982543945312 229.38333129882812 549.5949096679688 229.80332946777344 549.8148803710938 230.07000732421875 C 550.0415649414062 230.336669921875 550.2782592773438 230.49000549316406 550.52490234375 230.52999877929688 L 550.52490234375 232 L 524.2249145507812 232 L 524.2249145507812 230.52999877929688 ZM 582.9834594726562 221.91000366210938 C 582.9834594726562 220.3699951171875 583.2800903320312 219.03334045410156 583.8734741210938 217.89999389648438 C 584.4600830078125 216.75999450683594 585.2667846679688 215.7833251953125 586.29345703125 214.97000122070312 C 587.3201293945312 214.1566619873047 588.5368041992188 213.49000549316406 589.9434204101562 212.97000122070312 C 591.3434448242188 212.4499969482422 592.860107421875 212.0333251953125 594.4934692382812 211.72000122070312 C 596.1201171875 211.413330078125 597.8267822265625 211.20333862304688 599.6134643554688 211.08999633789062 C 601.4067993164062 210.97666931152344 603.2001342773438 210.9199981689453 604.9934692382812 210.9199981689453 C 606.7868041992188 210.9199981689453 608.5767822265625 210.97666931152344 610.3634643554688 211.08999633789062 C 612.1567993164062 211.20333862304688 613.8701171875 211.413330078125 615.50341796875 211.72000122070312 C 617.1367797851562 212.0333251953125 618.6534423828125 212.4499969482422 620.053466796875 212.97000122070312 C 621.4600830078125 213.49000549316406 622.6767578125 214.1566619873047 623.7034301757812 214.97000122070312 C 624.7301025390625 215.7833251953125 625.5368041992188 216.75999450683594 626.1234130859375 217.89999389648438 C 626.716796875 219.03334045410156 627.013427734375 220.3699951171875 627.013427734375 221.91000366210938 C 627.013427734375 223.44332885742188 626.716796875 224.77667236328125 626.1234130859375 225.91000366210938 C 625.5368041992188 227.0500030517578 624.7301025390625 228.02667236328125 623.7034301757812 228.83999633789062 C 622.6767578125 229.65333557128906 621.4600830078125 230.32000732421875 620.053466796875 230.83999633789062 C 618.6534423828125 231.36000061035156 617.1367797851562 231.77667236328125 615.50341796875 232.08999633789062 C 613.8701171875 232.39666748046875 612.1567993164062 232.60667419433594 610.3634643554688 232.72000122070312 C 608.5767822265625 232.8333282470703 606.7868041992188 232.88999938964844 604.9934692382812 232.88999938964844 C 603.2001342773438 232.88999938964844 601.4067993164062 232.8333282470703 599.6134643554688 232.72000122070312 C 597.8267822265625 232.60667419433594 596.1201171875 232.39666748046875 594.4934692382812 232.08999633789062 C 592.860107421875 231.77667236328125 591.3434448242188 231.36000061035156 589.9434204101562 230.83999633789062 C 588.5368041992188 230.32000732421875 587.3201293945312 229.65333557128906 586.29345703125 228.83999633789062 C 585.2667846679688 228.02667236328125 584.4600830078125 227.0500030517578 583.8734741210938 225.91000366210938 C 583.2800903320312 224.77667236328125 582.9834594726562 223.44332885742188 582.9834594726562 221.91000366210938 M 601.2234497070312 221.91000366210938 C 601.2234497070312 223.22332763671875 601.2701416015625 224.44332885742188 601.3634643554688 225.57000732421875 C 601.4634399414062 226.69667053222656 601.6500854492188 227.6699981689453 601.9234619140625 228.49000549316406 C 602.19677734375 229.30999755859375 602.5734252929688 229.95333862304688 603.053466796875 230.4199981689453 C 603.533447265625 230.8866729736328 604.1534423828125 231.1199951171875 604.9134521484375 231.1199951171875 C 605.6734619140625 231.1199951171875 606.303466796875 230.8866729736328 606.803466796875 230.4199981689453 C 607.2967529296875 229.95333862304688 607.6901245117188 229.30999755859375 607.9834594726562 228.49000549316406 C 608.2767944335938 227.6699981689453 608.4834594726562 226.69667053222656 608.6034545898438 225.57000732421875 C 608.7234497070312 224.44332885742188 608.783447265625 223.22332763671875 608.783447265625 221.91000366210938 C 608.783447265625 220.58999633789062 608.7234497070312 219.36666870117188 608.6034545898438 218.24000549316406 C 608.4834594726562 217.1133270263672 608.2767944335938 216.13999938964844 607.9834594726562 215.32000732421875 C 607.6901245117188 214.4933319091797 607.2967529296875 213.84666442871094 606.803466796875 213.3800048828125 C 606.303466796875 212.9199981689453 605.6734619140625 212.69000244140625 604.9134521484375 212.69000244140625 C 604.4000854492188 212.69000244140625 603.9534301757812 212.80999755859375 603.5734252929688 213.0500030517578 C 603.1934204101562 213.29000854492188 602.8667602539062 213.6199951171875 602.5934448242188 214.04000854492188 C 602.3267822265625 214.45999145507812 602.1034545898438 214.9633331298828 601.9234619140625 215.5500030517578 C 601.7434692382812 216.1366729736328 601.6034545898438 216.77000427246094 601.50341796875 217.4499969482422 C 601.3967895507812 218.1366729736328 601.3234252929688 218.85665893554688 601.283447265625 219.61000061035156 C 601.2434692382812 220.3699951171875 601.2234497070312 221.1366729736328 601.2234497070312 221.91000366210938 ZM 630.220703125 230.52999877929688 C 631.7807006835938 230.47666931152344 633.077392578125 230.2933349609375 634.1107177734375 229.97999572753906 C 635.14404296875 229.6666717529297 635.9673461914062 229.1666717529297 636.5806884765625 228.47999572753906 C 637.20068359375 227.7933349609375 637.6373901367188 226.8866729736328 637.8906860351562 225.75999450683594 C 638.1506958007812 224.63999938964844 638.2807006835938 223.23666381835938 638.2807006835938 221.5500030517578 C 638.2807006835938 220.41000366210938 638.2140502929688 219.413330078125 638.0806884765625 218.55999755859375 C 637.9473876953125 217.6999969482422 637.7440185546875 216.96665954589844 637.470703125 216.36000061035156 C 637.190673828125 215.74667358398438 636.8340454101562 215.24000549316406 636.4006958007812 214.83999633789062 C 635.9739990234375 214.44000244140625 635.460693359375 214.1233367919922 634.8607177734375 213.88999938964844 C 634.267333984375 213.663330078125 633.5840454101562 213.50332641601562 632.8106689453125 213.41000366210938 C 632.037353515625 213.31666564941406 631.1740112304688 213.27000427246094 630.220703125 213.27000427246094 L 630.220703125 211.8000030517578 L 655.5706787109375 211.8000030517578 C 659.4840087890625 211.8000030517578 662.8373413085938 211.88999938964844 665.6306762695312 212.07000732421875 C 668.4306640625 212.25 670.7239990234375 212.59666442871094 672.5106811523438 213.11000061035156 C 674.29736328125 213.6233367919922 675.6107177734375 214.336669921875 676.45068359375 215.25 C 677.2907104492188 216.163330078125 677.710693359375 217.35000610351562 677.710693359375 218.80999755859375 C 677.710693359375 219.72332763671875 677.5606689453125 220.52333068847656 677.2606811523438 221.2100067138672 C 676.960693359375 221.88999938964844 676.537353515625 222.47332763671875 675.99072265625 222.9600067138672 C 675.4373779296875 223.44667053222656 674.77734375 223.84666442871094 674.0106811523438 224.16000366210938 C 673.2440185546875 224.47332763671875 672.4006958007812 224.72000122070312 671.480712890625 224.89999389648438 C 670.5540161132812 225.086669921875 669.5673828125 225.2133331298828 668.5206909179688 225.27999877929688 C 667.4739990234375 225.34666442871094 666.3873901367188 225.3800048828125 665.2606811523438 225.3800048828125 C 664.307373046875 225.3800048828125 663.384033203125 225.3633270263672 662.49072265625 225.3300018310547 C 661.60400390625 225.2899932861328 660.730712890625 225.24667358398438 659.8706665039062 225.1999969482422 C 659.017333984375 225.15333557128906 658.1673583984375 225.11000061035156 657.3206787109375 225.07000732421875 C 656.4739990234375 225.02333068847656 655.6240234375 224.99000549316406 654.7706909179688 224.97000122070312 C 654.9373779296875 225.98333740234375 655.220703125 226.8333282470703 655.6206665039062 227.52000427246094 C 656.0140380859375 228.1999969482422 656.5740356445312 228.75332641601562 657.3007202148438 229.17999267578125 C 658.02734375 229.60665893554688 658.9340209960938 229.92666625976562 660.0206909179688 230.13999938964844 C 661.114013671875 230.34666442871094 662.440673828125 230.47666931152344 664.0006713867188 230.52999877929688 L 664.0006713867188 232 L 630.220703125 232 L 630.220703125 230.52999877929688 M 654.5806884765625 223.02999877929688 C 655.5140380859375 222.97000122070312 656.3673706054688 222.8433380126953 657.1406860351562 222.64999389648438 C 657.9207153320312 222.4566650390625 658.5906982421875 222.17333984375 659.1506958007812 221.8000030517578 C 659.7040405273438 221.43333435058594 660.134033203125 220.96665954589844 660.440673828125 220.39999389648438 C 660.7540283203125 219.83999633789062 660.9107055664062 219.15333557128906 660.9107055664062 218.33999633789062 C 660.9107055664062 217.44000244140625 660.7640380859375 216.6999969482422 660.470703125 216.1199951171875 C 660.1773681640625 215.54000854492188 659.7573852539062 215.07666015625 659.210693359375 214.72999572753906 C 658.6640014648438 214.38333129882812 657.9940185546875 214.13333129882812 657.20068359375 213.97999572753906 C 656.4140014648438 213.82666015625 655.5307006835938 213.72999572753906 654.5507202148438 213.69000244140625 L 654.5507202148438 221.5500030517578 C 654.5507202148438 221.81666564941406 654.5507202148438 222.07000732421875 654.5507202148438 222.30999755859375 C 654.5507202148438 222.5500030517578 654.5606689453125 222.7899932861328 654.5806884765625 223.02999877929688 Z" transform="matrix(1.0235322713851929, 0, 0, 1.0235322713851929, -197.44674682617188, 151.458984375)" style="fill: rgb(51, 51, 51); white-space: pre; color: rgb(51, 51, 51);"/><g transform="matrix(0.3356245458126068, 0, 0, 0.3356245458126068, 47.273944073402106, 111.31205478322067)"><g transform="matrix(1, 0, 0, 1, 0, 0)"><path class="st1" d="M758,754.6c-79.7,0-144.3-64.6-144.3-144.3c0-27.4,7.6-53,20.9-74.8c-56.9,19.3-97.9,73.2-97.9,136.6&#10;&#9;&#9;&#9;c0,79.7,64.6,144.3,144.3,144.3c52.3,0,98.1-27.8,123.4-69.5C789.8,751.9,774.2,754.6,758,754.6z" style="fill: rgb(251, 209, 8);" transform="matrix(1, 0, 0, 1, 0, 0)"/><path d="M 651.599976 743.799988 A 26 26 0 0 1 625.599976 769.799988 A 26 26 0 0 1 599.599976 743.799988 A 26 26 0 0 1 625.599976 717.799988 A 26 26 0 0 1 651.599976 743.799988 Z" class="st4" style="fill: rgb(236, 182, 30);" transform="matrix(1, 0, 0, 1, 0, 0)"/><path d="M 672.200025 778.5 A 10.8 10.8 0 0 1 661.400024 789.3 A 10.8 10.8 0 0 1 650.600024 778.5 A 10.8 10.8 0 0 1 661.400024 767.7 A 10.8 10.8 0 0 1 672.200025 778.5 Z" class="st4" style="fill: rgb(236, 182, 30);" transform="matrix(1, 0, 0, 1, 0, 0)"/><path d="M 740.6 779.599976 A 7.6 7.6 0 0 1 733 787.199975 A 7.6 7.6 0 0 1 725.4 779.599976 A 7.6 7.6 0 0 1 733 771.999976 A 7.6 7.6 0 0 1 740.6 779.599976 Z" class="st4" style="fill: rgb(236, 182, 30);" transform="matrix(1, 0, 0, 1, 0, 0)"/><path d="M 598.500025 614.700012 A 14.1 14.1 0 0 1 584.400024 628.800013 A 14.1 14.1 0 0 1 570.300024 614.700012 A 14.1 14.1 0 0 1 584.400024 600.600012 A 14.1 14.1 0 0 1 598.500025 614.700012 Z" class="st4" style="fill: rgb(236, 182, 30);" transform="matrix(1, 0, 0, 1, 0, 0)"/><path class="st1" d="M694.1,621.6l5.4,16.7c0.8,2.4,3,4,5.5,4h17.6c5.6,0,8,7.2,3.4,10.5l-14.2,10.3c-2,1.5-2.9,4.1-2.1,6.5&#10;&#9;&#9;&#9;l5.4,16.7c1.7,5.4-4.4,9.8-8.9,6.5L692,682.5c-2-1.5-4.8-1.5-6.8,0l-14.2,10.3c-4.6,3.3-10.7-1.1-8.9-6.5l5.4-16.7&#10;&#9;&#9;&#9;c0.8-2.4-0.1-5-2.1-6.5l-14.2-10.3c-4.6-3.3-2.2-10.5,3.4-10.5h17.6c2.5,0,4.7-1.6,5.5-4l5.4-16.7&#10;&#9;&#9;&#9;C684.8,616.2,692.4,616.2,694.1,621.6z" style="fill: rgb(251, 209, 8);" transform="matrix(1, 0, 0, 1, 0, 0)"/><path class="st1" d="M754.1,581.5l4,12.4c0.6,1.8,2.2,3,4.1,3h13.1c4.2,0,5.9,5.4,2.5,7.8l-10.6,7.7c-1.5,1.1-2.2,3.1-1.6,4.8&#10;&#9;&#9;&#9;l4,12.4c1.3,4-3.3,7.3-6.7,4.8l-10.6-7.7c-1.5-1.1-3.6-1.1-5.1,0l-10.6,7.7c-3.4,2.5-8-0.9-6.7-4.8l4-12.4&#10;&#9;&#9;&#9;c0.6-1.8-0.1-3.7-1.6-4.8l-10.6-7.7c-3.4-2.5-1.6-7.8,2.5-7.8h13.1c1.9,0,3.5-1.2,4.1-3l4-12.4&#10;&#9;&#9;&#9;C747.2,577.5,752.8,577.5,754.1,581.5z" style="fill: rgb(251, 209, 8);" transform="matrix(1, 0, 0, 1, 0, 0)"/></g></g></svg>