<?xml version="1.0" encoding="utf-8"?>
<svg id="master-artboard" xmlns="http://www.w3.org/2000/svg" viewBox="0 0 500 500" width="500px" height="500px"><defs><style id="ee-google-fonts">@import url(https://fonts.googleapis.com/css?family=Asset:400);</style></defs><rect id="ee-background" x="0" y="0" width="500" height="500" style="fill: white; fill-opacity: 0; pointer-events: none;"/><path d="M 199.36563110351562 221.91000366210938 C 199.36563110351562 220.3699951171875 199.66229248046875 219.03334045410156 200.25563049316406 217.89999389648438 C 200.84230041503906 216.75999450683594 201.6489715576172 215.7833251953125 202.67562866210938 214.97000122070312 C 203.70230102539062 214.1566619873047 204.91896057128906 213.49000549316406 206.3256378173828 212.97000122070312 C 207.7256317138672 212.4499969482422 209.24229431152344 212.0333251953125 210.87562561035156 211.72000122070312 C 212.50230407714844 211.413330078125 214.20896911621094 211.20333862304688 215.99563598632812 211.08999633789062 C 217.78897094726562 210.97666931152344 219.58230590820312 210.9199981689453 221.37562561035156 210.9199981689453 C 223.16896057128906 210.9199981689453 224.95896911621094 210.97666931152344 226.74563598632812 211.08999633789062 C 228.53897094726562 211.20333862304688 230.25230407714844 211.413330078125 231.88563537597656 211.72000122070312 C 233.5189666748047 212.0333251953125 235.03562927246094 212.4499969482422 236.43563842773438 212.97000122070312 C 237.84230041503906 213.49000549316406 239.0589599609375 214.1566619873047 240.08563232421875 214.97000122070312 C 241.1123046875 215.7833251953125 241.91896057128906 216.75999450683594 242.50563049316406 217.89999389648438 C 243.09896850585938 219.03334045410156 243.3956298828125 220.3699951171875 243.3956298828125 221.91000366210938 C 243.3956298828125 223.44332885742188 243.09896850585938 224.77667236328125 242.50563049316406 225.91000366210938 C 241.91896057128906 227.0500030517578 241.1123046875 228.02667236328125 240.08563232421875 228.83999633789062 C 239.0589599609375 229.65333557128906 237.84230041503906 230.32000732421875 236.43563842773438 230.83999633789062 C 235.03562927246094 231.36000061035156 233.5189666748047 231.77667236328125 231.88563537597656 232.08999633789062 C 230.25230407714844 232.39666748046875 228.53897094726562 232.60667419433594 226.74563598632812 232.72000122070312 C 224.95896911621094 232.8333282470703 223.16896057128906 232.88999938964844 221.37562561035156 232.88999938964844 C 219.58230590820312 232.88999938964844 217.78897094726562 232.8333282470703 215.99563598632812 232.72000122070312 C 214.20896911621094 232.60667419433594 212.50230407714844 232.39666748046875 210.87562561035156 232.08999633789062 C 209.24229431152344 231.77667236328125 207.7256317138672 231.36000061035156 206.3256378173828 230.83999633789062 C 204.91896057128906 230.32000732421875 203.70230102539062 229.65333557128906 202.67562866210938 228.83999633789062 C 201.6489715576172 228.02667236328125 200.84230041503906 227.0500030517578 200.25563049316406 225.91000366210938 C 199.66229248046875 224.77667236328125 199.36563110351562 223.44332885742188 199.36563110351562 221.91000366210938 M 217.6056365966797 221.91000366210938 C 217.6056365966797 223.22332763671875 217.6522979736328 224.44332885742188 217.74563598632812 225.57000732421875 C 217.8456268310547 226.69667053222656 218.0323028564453 227.6699981689453 218.30563354492188 228.49000549316406 C 218.57896423339844 229.30999755859375 218.95562744140625 229.95333862304688 219.43563842773438 230.4199981689453 C 219.91563415527344 230.8866729736328 220.53562927246094 231.1199951171875 221.29562377929688 231.1199951171875 C 222.05563354492188 231.1199951171875 222.68563842773438 230.8866729736328 223.18563842773438 230.4199981689453 C 223.67897033691406 229.95333862304688 224.07229614257812 229.30999755859375 224.36563110351562 228.49000549316406 C 224.65896606445312 227.6699981689453 224.86563110351562 226.69667053222656 224.98562622070312 225.57000732421875 C 225.1056365966797 224.44332885742188 225.16563415527344 223.22332763671875 225.16563415527344 221.91000366210938 C 225.16563415527344 220.58999633789062 225.1056365966797 219.36666870117188 224.98562622070312 218.24000549316406 C 224.86563110351562 217.1133270263672 224.65896606445312 216.13999938964844 224.36563110351562 215.32000732421875 C 224.07229614257812 214.4933319091797 223.67897033691406 213.84666442871094 223.18563842773438 213.3800048828125 C 222.68563842773438 212.9199981689453 222.05563354492188 212.69000244140625 221.29562377929688 212.69000244140625 C 220.7823028564453 212.69000244140625 220.33563232421875 212.80999755859375 219.95562744140625 213.0500030517578 C 219.5756378173828 213.29000854492188 219.24896240234375 213.6199951171875 218.9756317138672 214.04000854492188 C 218.70896911621094 214.45999145507812 218.48562622070312 214.9633331298828 218.30563354492188 215.5500030517578 C 218.12562561035156 216.1366729736328 217.98562622070312 216.77000427246094 217.88563537597656 217.4499969482422 C 217.77896118164062 218.1366729736328 217.70562744140625 218.85665893554688 217.66563415527344 219.61000061035156 C 217.62562561035156 220.3699951171875 217.6056365966797 221.1366729736328 217.6056365966797 221.91000366210938 ZM 246.59693908691406 230.52999877929688 C 248.1569366455078 230.47666931152344 249.45359802246094 230.2933349609375 250.4869384765625 229.97999572753906 C 251.520263671875 229.6666717529297 252.34359741210938 229.1666717529297 252.95692443847656 228.47999572753906 C 253.57693481445312 227.7933349609375 254.0135955810547 226.8866729736328 254.26693725585938 225.75999450683594 C 254.5269317626953 224.63999938964844 254.6569366455078 223.23666381835938 254.6569366455078 221.5500030517578 C 254.6569366455078 220.41000366210938 254.59027099609375 219.413330078125 254.45693969726562 218.55999755859375 C 254.32359313964844 217.6999969482422 254.12026977539062 216.96665954589844 253.846923828125 216.36000061035156 C 253.56692504882812 215.74667358398438 253.21026611328125 215.24000549316406 252.7769317626953 214.83999633789062 C 252.3502655029297 214.44000244140625 251.83692932128906 214.1233367919922 251.2369384765625 213.88999938964844 C 250.6436004638672 213.663330078125 249.96026611328125 213.50332641601562 249.1869354248047 213.41000366210938 C 248.41360473632812 213.31666564941406 247.55026245117188 213.27000427246094 246.59693908691406 213.27000427246094 L 246.59693908691406 211.8000030517578 L 271.9469299316406 211.8000030517578 C 274.6602783203125 211.8000030517578 277.0869445800781 211.82000732421875 279.2269287109375 211.86000061035156 C 281.3602600097656 211.89999389648438 283.2369384765625 211.97999572753906 284.85693359375 212.10000610351562 C 286.4769287109375 212.22000122070312 287.8536071777344 212.38999938964844 288.9869384765625 212.61000061035156 C 290.1269226074219 212.8300018310547 291.0535888671875 213.1233367919922 291.7669372558594 213.49000549316406 C 292.4802551269531 213.85000610351562 293.0002746582031 214.29666137695312 293.3269348144531 214.8300018310547 C 293.6469421386719 215.3633270263672 293.80694580078125 215.99667358398438 293.80694580078125 216.72999572753906 C 293.80694580078125 217.4566650390625 293.6036071777344 218.10000610351562 293.1969299316406 218.66000366210938 C 292.7902526855469 219.22000122070312 292.2169189453125 219.70333862304688 291.4769287109375 220.11000061035156 C 290.7369384765625 220.51666259765625 289.846923828125 220.85665893554688 288.80694580078125 221.1300048828125 C 287.7735900878906 221.41000366210938 286.62359619140625 221.63333129882812 285.35693359375 221.8000030517578 C 284.096923828125 221.96665954589844 282.74359130859375 222.086669921875 281.29693603515625 222.16000366210938 C 279.85028076171875 222.23333740234375 278.3435974121094 222.27333068847656 276.77691650390625 222.27999877929688 L 283.4369201660156 222.27999877929688 C 284.83026123046875 222.27999877929688 286.0402526855469 222.3300018310547 287.0669250488281 222.42999267578125 C 288.0869445800781 222.52999877929688 288.9635925292969 222.68666076660156 289.6969299316406 222.89999389648438 C 290.423583984375 223.1133270263672 291.0335998535156 223.38333129882812 291.52691650390625 223.7100067138672 C 292.01361083984375 224.0433349609375 292.4202575683594 224.43666076660156 292.7469482421875 224.88999938964844 C 293.0669250488281 225.3433380126953 293.3335876464844 225.86000061035156 293.54693603515625 226.44000244140625 C 293.75360107421875 227.02667236328125 293.9469299316406 227.67999267578125 294.1269226074219 228.39999389648438 C 294.2269287109375 228.82000732421875 294.346923828125 229.163330078125 294.4869384765625 229.42999267578125 C 294.6269226074219 229.70333862304688 294.8169250488281 229.9199981689453 295.05694580078125 230.0800018310547 C 295.29693603515625 230.24667358398438 295.60028076171875 230.36000061035156 295.9669189453125 230.4199981689453 C 296.3335876464844 230.47999572753906 296.8002624511719 230.50999450683594 297.366943359375 230.50999450683594 L 297.366943359375 232.08999633789062 C 296.1869201660156 232.22999572753906 295.096923828125 232.35000610351562 294.096923828125 232.4499969482422 C 293.1036071777344 232.5433349609375 292.17694091796875 232.6266632080078 291.3169250488281 232.6999969482422 C 290.4569396972656 232.76666259765625 289.6535949707031 232.81666564941406 288.90692138671875 232.85000610351562 C 288.16693115234375 232.8766632080078 287.4635925292969 232.88999938964844 286.79693603515625 232.88999938964844 C 285.2835998535156 232.88999938964844 283.99359130859375 232.8633270263672 282.92694091796875 232.80999755859375 C 281.8536071777344 232.75 280.95025634765625 232.64332580566406 280.2169189453125 232.49000549316406 C 279.48358154296875 232.3433380126953 278.8935852050781 232.14666748046875 278.4469299316406 231.89999389648438 C 278.0069274902344 231.65333557128906 277.65692138671875 231.33999633789062 277.3969421386719 230.9600067138672 C 277.1435852050781 230.5800018310547 276.9569396972656 230.1266632080078 276.8369445800781 229.60000610351562 C 276.7169189453125 229.07333374023438 276.6202697753906 228.4600067138672 276.54693603515625 227.75999450683594 C 276.45361328125 226.913330078125 276.3135986328125 226.1999969482422 276.1269226074219 225.6199951171875 C 275.9402770996094 225.0399932861328 275.6435852050781 224.56333923339844 275.2369384765625 224.19000244140625 C 274.8369445800781 223.81666564941406 274.29693603515625 223.53334045410156 273.616943359375 223.33999633789062 C 272.9302673339844 223.14666748046875 272.0402526855469 223.01666259765625 270.9469299316406 222.9499969482422 C 270.9736022949219 224.3633270263672 271.0602722167969 225.5500030517578 271.2069396972656 226.50999450683594 C 271.346923828125 227.47666931152344 271.5635986328125 228.2566680908203 271.85693359375 228.85000610351562 C 272.15692138671875 229.4499969482422 272.5402526855469 229.8800048828125 273.0069274902344 230.13999938964844 C 273.4802551269531 230.39999389648438 274.0602722167969 230.52999877929688 274.7469177246094 230.52999877929688 L 274.7469177246094 232 L 246.59693908691406 232 L 246.59693908691406 230.52999877929688 M 270.92694091796875 221.22999572753906 C 271.9402770996094 221.19000244140625 272.8802490234375 221.10000610351562 273.7469177246094 220.9600067138672 C 274.61358642578125 220.82000732421875 275.3602600097656 220.60665893554688 275.9869384765625 220.32000732421875 C 276.61358642578125 220.03334045410156 277.1036071777344 219.65333557128906 277.4569396972656 219.17999267578125 C 277.8102722167969 218.7133331298828 277.9869384765625 218.1233367919922 277.9869384765625 217.41000366210938 C 277.9869384765625 216.6699981689453 277.8169250488281 216.06666564941406 277.4769287109375 215.60000610351562 C 277.1369323730469 215.1266632080078 276.65692138671875 214.75332641601562 276.03692626953125 214.47999572753906 C 275.41693115234375 214.1999969482422 274.673583984375 214.00332641601562 273.80694580078125 213.88999938964844 C 272.9402770996094 213.77667236328125 271.9802551269531 213.70333862304688 270.92694091796875 213.6699981689453 L 270.92694091796875 221.22999572753906 ZM 299.7888488769531 230.52999877929688 C 301.3488464355469 230.47666931152344 302.6455078125 230.2933349609375 303.6788330078125 229.97999572753906 C 304.7121887207031 229.6666717529297 305.5355224609375 229.1666717529297 306.1488342285156 228.47999572753906 C 306.7688293457031 227.7933349609375 307.20550537109375 226.8866729736328 307.4588317871094 225.75999450683594 C 307.7188415527344 224.63999938964844 307.8488464355469 223.23666381835938 307.8488464355469 221.5500030517578 C 307.8488464355469 220.41000366210938 307.78216552734375 219.413330078125 307.6488342285156 218.55999755859375 C 307.5155029296875 217.6999969482422 307.3121643066406 216.96665954589844 307.0388488769531 216.36000061035156 C 306.75885009765625 215.74667358398438 306.40216064453125 215.24000549316406 305.9688415527344 214.83999633789062 C 305.54217529296875 214.44000244140625 305.0288391113281 214.1233367919922 304.4288330078125 213.88999938964844 C 303.83551025390625 213.663330078125 303.15216064453125 213.50332641601562 302.37884521484375 213.41000366210938 C 301.6054992675781 213.31666564941406 300.7421875 213.27000427246094 299.7888488769531 213.27000427246094 L 299.7888488769531 211.8000030517578 L 325.9188537597656 211.8000030517578 C 328.6855163574219 211.8000030517578 331.10882568359375 211.8300018310547 333.1888427734375 211.88999938964844 C 335.2688293457031 211.9499969482422 337.0655212402344 212.05332946777344 338.578857421875 212.1999969482422 C 340.0921630859375 212.34666442871094 341.3488464355469 212.54000854492188 342.3488464355469 212.77999877929688 C 343.3421630859375 213.02000427246094 344.135498046875 213.31666564941406 344.7288513183594 213.6699981689453 C 345.3155212402344 214.02999877929688 345.7288513183594 214.4499969482422 345.9688415527344 214.92999267578125 C 346.2088317871094 215.41000366210938 346.328857421875 215.9566650390625 346.328857421875 216.57000732421875 C 346.328857421875 217.27667236328125 346.1021728515625 217.8866729736328 345.6488342285156 218.39999389648438 C 345.19549560546875 218.913330078125 344.5721740722656 219.3433380126953 343.7788391113281 219.69000244140625 C 342.9855041503906 220.0433349609375 342.048828125 220.32666015625 340.9688415527344 220.5399932861328 C 339.88885498046875 220.75999450683594 338.7188415527344 220.92999267578125 337.4588317871094 221.0500030517578 C 336.20550537109375 221.1699981689453 334.8955078125 221.25332641601562 333.5288391113281 221.3000030517578 C 332.16217041015625 221.33999633789062 330.7888488769531 221.3633270263672 329.4088439941406 221.3699951171875 C 331.10882568359375 221.38333129882812 332.7788391113281 221.4066619873047 334.4188537597656 221.44000244140625 C 336.058837890625 221.47999572753906 337.60882568359375 221.56333923339844 339.06884765625 221.69000244140625 C 340.5288391113281 221.80999755859375 341.87884521484375 221.98666381835938 343.11883544921875 222.22000122070312 C 344.35882568359375 222.44667053222656 345.4288330078125 222.7566680908203 346.328857421875 223.14999389648438 C 347.2288513183594 223.5433349609375 347.9288330078125 224.02667236328125 348.4288330078125 224.60000610351562 C 348.9355163574219 225.17333984375 349.1888427734375 225.86000061035156 349.1888427734375 226.66000366210938 C 349.1888427734375 227.86000061035156 348.7088317871094 228.81333923339844 347.74884033203125 229.52000427246094 C 346.78216552734375 230.22666931152344 345.3488464355469 230.76333618164062 343.4488525390625 231.1300048828125 C 341.548828125 231.50332641601562 339.1921691894531 231.74000549316406 336.37884521484375 231.83999633789062 C 333.5721740722656 231.94667053222656 330.3221740722656 232 326.62884521484375 232 L 299.7888488769531 232 L 299.7888488769531 230.52999877929688 M 324.578857421875 220.25 L 324.61883544921875 220.25999450683594 C 325.6455078125 220.24000549316406 326.5621643066406 220.17999267578125 327.36883544921875 220.0800018310547 C 328.1755065917969 219.97999572753906 328.8621826171875 219.80999755859375 329.4288330078125 219.57000732421875 C 329.98883056640625 219.32333374023438 330.42218017578125 218.98666381835938 330.7288513183594 218.55999755859375 C 331.0288391113281 218.13999938964844 331.1788330078125 217.59666442871094 331.1788330078125 216.92999267578125 C 331.1788330078125 216.25 331.0155029296875 215.6999969482422 330.6888427734375 215.27999877929688 C 330.3554992675781 214.85333251953125 329.885498046875 214.52333068847656 329.2788391113281 214.29000854492188 C 328.6654968261719 214.05667114257812 327.9255065917969 213.89666748046875 327.058837890625 213.80999755859375 C 326.1855163574219 213.72999572753906 325.20550537109375 213.68333435058594 324.11883544921875 213.6699981689453 L 324.11883544921875 220.25 L 324.578857421875 220.25 M 324.11883544921875 230 C 325.11883544921875 230 326.08551025390625 229.9633331298828 327.0188293457031 229.88999938964844 C 327.9588317871094 229.81666564941406 328.7888488769531 229.64334106445312 329.50885009765625 229.3699951171875 C 330.2288513183594 229.09666442871094 330.80218505859375 228.69667053222656 331.2288513183594 228.1699981689453 C 331.66217041015625 227.64334106445312 331.87884521484375 226.92666625976562 331.87884521484375 226.02000427246094 C 331.87884521484375 225.1133270263672 331.67218017578125 224.39999389648438 331.25885009765625 223.8800048828125 C 330.8388366699219 223.35333251953125 330.2721862792969 222.9600067138672 329.558837890625 222.6999969482422 C 328.84552001953125 222.44000244140625 328.0188293457031 222.27667236328125 327.078857421875 222.2100067138672 C 326.13885498046875 222.14334106445312 325.15216064453125 222.11000061035156 324.11883544921875 222.11000061035156 L 324.11883544921875 230 ZM 350.9613952636719 230.52999877929688 C 351.2613830566406 230.52999877929688 351.67138671875 230.44000244140625 352.1913757324219 230.25999450683594 C 352.7113952636719 230.086669921875 353.28472900390625 229.80332946777344 353.911376953125 229.41000366210938 C 354.5380554199219 229.01666259765625 355.1913757324219 228.51333618164062 355.87139892578125 227.89999389648438 C 356.5513916015625 227.2866668701172 357.2047119140625 226.5366668701172 357.8313903808594 225.64999389648438 L 367.5614013671875 211.8000030517578 L 383.35137939453125 211.8000030517578 L 391.8813781738281 225.3000030517578 C 392.4747314453125 226.24000549316406 393.12139892578125 227.0399932861328 393.8213806152344 227.6999969482422 C 394.5213928222656 228.36666870117188 395.2147216796875 228.9066619873047 395.9013977050781 229.32000732421875 C 396.5813903808594 229.74000549316406 397.22137451171875 230.04666137695312 397.8213806152344 230.24000549316406 C 398.42138671875 230.43333435058594 398.9247131347656 230.52999877929688 399.3313903808594 230.52999877929688 L 399.3313903808594 232 L 369.2713928222656 232 L 369.2713928222656 230.52999877929688 C 369.73138427734375 230.52999877929688 370.18804931640625 230.46665954589844 370.6413879394531 230.33999633789062 C 371.0947265625 230.2133331298828 371.50140380859375 230.02333068847656 371.86138916015625 229.77000427246094 C 372.22137451171875 229.51666259765625 372.5113830566406 229.19667053222656 372.73138427734375 228.80999755859375 C 372.9447326660156 228.42333984375 373.0513916015625 227.97000122070312 373.0513916015625 227.4499969482422 C 373.0513916015625 227.22999572753906 373.00140380859375 226.94000244140625 372.9013977050781 226.5800018310547 L 360.42138671875 226.5800018310547 C 360.3747253417969 226.72666931152344 360.3380432128906 226.86000061035156 360.3114013671875 226.97999572753906 C 360.2913818359375 227.0933380126953 360.2814025878906 227.1999969482422 360.2814025878906 227.3000030517578 C 360.2814025878906 227.8333282470703 360.3913879394531 228.30332946777344 360.61138916015625 228.7100067138672 C 360.8313903808594 229.11000061035156 361.12139892578125 229.44667053222656 361.48138427734375 229.72000122070312 C 361.8414001464844 229.98666381835938 362.248046875 230.19000244140625 362.7013854980469 230.3300018310547 C 363.15472412109375 230.4633331298828 363.6180419921875 230.52999877929688 364.0914001464844 230.52999877929688 L 364.0914001464844 232 L 350.9613952636719 232 L 350.9613952636719 230.52999877929688 M 371.9613952636719 224.41000366210938 C 371.74139404296875 223.99000549316406 371.4847106933594 223.5066680908203 371.1913757324219 222.9600067138672 C 370.8980712890625 222.413330078125 370.5547180175781 221.7899932861328 370.161376953125 221.08999633789062 C 369.7613830566406 220.38999938964844 369.3147277832031 219.60665893554688 368.8213806152344 218.74000549316406 C 368.32806396484375 217.8800048828125 367.76806640625 216.9166717529297 367.1413879394531 215.85000610351562 C 366.42138671875 216.93666076660156 365.76806640625 217.9166717529297 365.181396484375 218.7899932861328 C 364.60137939453125 219.6699981689453 364.0813903808594 220.4566650390625 363.62139892578125 221.14999389648438 C 363.1680603027344 221.85000610351562 362.77471923828125 222.46665954589844 362.4413757324219 223 C 362.10137939453125 223.53334045410156 361.8114013671875 224.00332641601562 361.5713806152344 224.41000366210938 L 371.9613952636719 224.41000366210938 ZM 400.9744873046875 230.52999877929688 C 402.5411682128906 230.47666931152344 403.8411560058594 230.2933349609375 404.8744812011719 229.97999572753906 C 405.9078063964844 229.6666717529297 406.73114013671875 229.1666717529297 407.344482421875 228.47999572753906 C 407.9644775390625 227.7933349609375 408.4011535644531 226.8866729736328 408.65447998046875 225.75999450683594 C 408.9078063964844 224.63999938964844 409.03448486328125 223.23666381835938 409.03448486328125 221.5500030517578 C 409.03448486328125 220.41000366210938 408.9711608886719 219.413330078125 408.844482421875 218.55999755859375 C 408.7111511230469 217.6999969482422 408.5078125 216.96665954589844 408.2344970703125 216.36000061035156 C 407.9544982910156 215.74667358398438 407.5978088378906 215.24000549316406 407.16448974609375 214.83999633789062 C 406.73114013671875 214.44000244140625 406.21783447265625 214.1233367919922 405.6244812011719 213.88999938964844 C 405.0311584472656 213.663330078125 404.3478088378906 213.50332641601562 403.5744934082031 213.41000366210938 C 402.8011474609375 213.31666564941406 401.9344787597656 213.27000427246094 400.9744873046875 213.27000427246094 L 400.9744873046875 211.8000030517578 L 428.3044738769531 211.8000030517578 L 442.094482421875 223 L 442.1244812011719 221.5500030517578 C 442.1244812011719 219.836669921875 441.9744873046875 218.44332885742188 441.67449951171875 217.3699951171875 C 441.38116455078125 216.2899932861328 440.9078369140625 215.44667053222656 440.2544860839844 214.83999633789062 C 439.6078186035156 214.22666931152344 438.77783203125 213.80999755859375 437.7644958496094 213.58999633789062 C 436.7444763183594 213.3766632080078 435.5144958496094 213.27000427246094 434.0744934082031 213.27000427246094 L 434.0744934082031 211.8000030517578 L 451.29449462890625 211.8000030517578 L 451.29449462890625 213.27000427246094 C 450.33447265625 213.27000427246094 449.4878234863281 213.31666564941406 448.7544860839844 213.41000366210938 C 448.02783203125 213.50332641601562 447.39447021484375 213.663330078125 446.8544921875 213.88999938964844 C 446.3211669921875 214.1233367919922 445.8744812011719 214.44000244140625 445.5144958496094 214.83999633789062 C 445.15447998046875 215.24000549316406 444.864501953125 215.74667358398438 444.64447021484375 216.36000061035156 C 444.42449951171875 216.96665954589844 444.267822265625 217.6999969482422 444.17449951171875 218.55999755859375 C 444.0811462402344 219.413330078125 444.03448486328125 220.41000366210938 444.03448486328125 221.5500030517578 L 444.03448486328125 232 L 427.9744873046875 232 C 426.094482421875 230.3733367919922 424.1844787597656 228.72999572753906 422.2444763183594 227.07000732421875 C 421.4178161621094 226.3633270263672 420.5478210449219 225.6133270263672 419.6344909667969 224.82000732421875 C 418.7144775390625 224.03334045410156 417.7811584472656 223.23666381835938 416.83447265625 222.42999267578125 C 415.8945007324219 221.6233367919922 414.9544982910156 220.81666564941406 414.0144958496094 220.00999450683594 C 413.0744934082031 219.2100067138672 412.1678161621094 218.43333435058594 411.29449462890625 217.67999267578125 C 411.1678161621094 218.1999969482422 411.0744934082031 218.77999877929688 411.0144958496094 219.4199981689453 C 410.9611511230469 220.05332946777344 410.9344787597656 220.76333618164062 410.9344787597656 221.5500030517578 C 410.9344787597656 223.23666381835938 411.0611572265625 224.63999938964844 411.3144836425781 225.75999450683594 C 411.56781005859375 226.8866729736328 412.0044860839844 227.7933349609375 412.6244812011719 228.47999572753906 C 413.2378234863281 229.1666717529297 414.0611572265625 229.6666717529297 415.094482421875 229.97999572753906 C 416.1278076171875 230.2933349609375 417.421142578125 230.47666931152344 418.9744873046875 230.52999877929688 L 418.9744873046875 232 L 400.9744873046875 232 L 400.9744873046875 230.52999877929688 ZM 453.9449157714844 223.5800018310547 C 453.91827392578125 223.30667114257812 453.89825439453125 223.0399932861328 453.8849182128906 222.77999877929688 C 453.87158203125 222.52000427246094 453.86492919921875 222.25332641601562 453.86492919921875 221.97999572753906 C 453.86492919921875 221.72000122070312 453.87158203125 221.4566650390625 453.8849182128906 221.19000244140625 C 453.89825439453125 220.92333984375 453.91827392578125 220.6566619873047 453.9449157714844 220.38999938964844 C 454.1116027832031 220.4166717529297 454.37493896484375 220.44667053222656 454.73492431640625 220.47999572753906 C 455.0949401855469 220.51333618164062 455.5216064453125 220.5399932861328 456.0149230957031 220.55999755859375 C 456.5015869140625 220.5800018310547 457.03826904296875 220.59666442871094 457.62493896484375 220.61000061035156 C 458.21160888671875 220.6300048828125 458.804931640625 220.64334106445312 459.4049377441406 220.64999389648438 C 460.0115966796875 220.663330078125 460.6116027832031 220.67333984375 461.2049255371094 220.67999267578125 C 461.7915954589844 220.67999267578125 462.3349304199219 220.68333435058594 462.8349304199219 220.69000244140625 C 463.3349304199219 220.69667053222656 463.7749328613281 220.6999969482422 464.1549377441406 220.6999969482422 C 464.52825927734375 220.6999969482422 464.804931640625 220.6999969482422 464.98492431640625 220.6999969482422 C 465.29827880859375 220.6999969482422 465.75494384765625 220.69667053222656 466.35491943359375 220.69000244140625 C 466.9549255371094 220.68333435058594 467.62493896484375 220.67666625976562 468.36492919921875 220.6699981689453 C 469.10491943359375 220.6566619873047 469.87493896484375 220.64334106445312 470.6749267578125 220.6300048828125 C 471.46826171875 220.61666870117188 472.22491455078125 220.59666442871094 472.9449462890625 220.57000732421875 C 473.6649169921875 220.5433349609375 474.304931640625 220.51666259765625 474.86492919921875 220.49000549316406 C 475.4249267578125 220.4633331298828 475.8282775878906 220.42999267578125 476.0749206542969 220.38999938964844 C 476.0882568359375 220.4633331298828 476.0982666015625 220.57000732421875 476.10491943359375 220.7100067138672 C 476.1182556152344 220.85000610351562 476.1282653808594 220.99667358398438 476.1349182128906 221.14999389648438 C 476.1416015625 221.30999755859375 476.1449279785156 221.46665954589844 476.1449279785156 221.6199951171875 C 476.151611328125 221.76666259765625 476.1549377441406 221.8866729736328 476.1549377441406 221.97999572753906 C 476.1549377441406 222.06666564941406 476.151611328125 222.18333435058594 476.1449279785156 222.3300018310547 C 476.1449279785156 222.47666931152344 476.1416015625 222.6266632080078 476.1349182128906 222.77999877929688 C 476.1282653808594 222.94000244140625 476.1182556152344 223.08999633789062 476.10491943359375 223.22999572753906 C 476.0982666015625 223.3699951171875 476.0882568359375 223.48666381835938 476.0749206542969 223.5800018310547 C 475.8349304199219 223.54666137695312 475.4282531738281 223.51666259765625 474.85491943359375 223.49000549316406 C 474.2815856933594 223.4566650390625 473.62493896484375 223.42666625976562 472.8849182128906 223.39999389648438 C 472.1449279785156 223.3733367919922 471.3616027832031 223.35333251953125 470.5349426269531 223.33999633789062 C 469.7149353027344 223.32000732421875 468.9316101074219 223.30667114257812 468.1849365234375 223.3000030517578 C 467.4449157714844 223.2866668701172 466.78826904296875 223.27667236328125 466.2149353027344 223.27000427246094 C 465.6349182128906 223.27000427246094 465.2249450683594 223.27000427246094 464.98492431640625 223.27000427246094 C 464.7849426269531 223.27000427246094 464.4916076660156 223.27000427246094 464.10491943359375 223.27000427246094 C 463.71826171875 223.27667236328125 463.2749328613281 223.28334045410156 462.7749328613281 223.2899932861328 C 462.2749328613281 223.29666137695312 461.728271484375 223.30332946777344 461.1349182128906 223.30999755859375 C 460.54827880859375 223.32333374023438 459.958251953125 223.336669921875 459.36492919921875 223.35000610351562 C 458.7716064453125 223.35665893554688 458.1849365234375 223.36666870117188 457.60491943359375 223.3800048828125 C 457.0249328613281 223.39999389648438 456.4916076660156 223.4199981689453 456.00494384765625 223.44000244140625 C 455.51824951171875 223.4600067138672 455.0949401855469 223.47999572753906 454.73492431640625 223.5 C 454.37493896484375 223.52000427246094 454.1116027832031 223.54666137695312 453.9449157714844 223.5800018310547 ZM 482.9192810058594 232.88999938964844 C 482.79925537109375 232.6699981689453 482.68927001953125 232.36666870117188 482.5892639160156 231.97999572753906 C 482.48260498046875 231.586669921875 482.38592529296875 231.14999389648438 482.29925537109375 230.6699981689453 C 482.2126159667969 230.19000244140625 482.1292724609375 229.69332885742188 482.04925537109375 229.17999267578125 C 481.9692687988281 228.66000366210938 481.9026184082031 228.1566619873047 481.8492736816406 227.6699981689453 C 481.7959289550781 227.18333435058594 481.7559509277344 226.74000549316406 481.7292785644531 226.33999633789062 C 481.7092590332031 225.94000244140625 481.69927978515625 225.6199951171875 481.69927978515625 225.3800048828125 L 483.2892761230469 225.3800048828125 C 483.63592529296875 226.0800018310547 484.0892639160156 226.6999969482422 484.6492614746094 227.24000549316406 C 485.2159423828125 227.7866668701172 485.8592834472656 228.26333618164062 486.57928466796875 228.6699981689453 C 487.29925537109375 229.07666015625 488.0826110839844 229.4199981689453 488.92926025390625 229.6999969482422 C 489.7692565917969 229.97999572753906 490.64593505859375 230.2066650390625 491.55926513671875 230.3800048828125 C 492.47259521484375 230.55332946777344 493.402587890625 230.67999267578125 494.3492736816406 230.75999450683594 C 495.2959289550781 230.8333282470703 496.2259521484375 230.8699951171875 497.1392822265625 230.8699951171875 C 498.64593505859375 230.8699951171875 499.8992614746094 230.80667114257812 500.8992614746094 230.67999267578125 C 501.8992614746094 230.54666137695312 502.7026062011719 230.3699951171875 503.30926513671875 230.14999389648438 C 503.9159240722656 229.92333984375 504.34259033203125 229.66000366210938 504.5892639160156 229.36000061035156 C 504.84259033203125 229.05332946777344 504.9692687988281 228.72332763671875 504.9692687988281 228.3699951171875 C 504.9692687988281 227.85665893554688 504.749267578125 227.44000244140625 504.30926513671875 227.1199951171875 C 503.8692626953125 226.80667114257812 503.2726135253906 226.55667114257812 502.5192565917969 226.3699951171875 C 501.75927734375 226.17666625976562 500.8759460449219 226.02999877929688 499.8692626953125 225.92999267578125 C 498.86260986328125 225.82333374023438 497.7959289550781 225.72999572753906 496.6692810058594 225.64999389648438 C 495.53594970703125 225.56333923339844 494.3725891113281 225.47000122070312 493.17926025390625 225.3699951171875 C 491.99261474609375 225.27000427246094 490.8326110839844 225.1233367919922 489.69927978515625 224.92999267578125 C 488.5659484863281 224.73666381835938 487.4959411621094 224.48333740234375 486.4892578125 224.1699981689453 C 485.48260498046875 223.85000610351562 484.60260009765625 223.43333435058594 483.8492736816406 222.9199981689453 C 483.0892639160156 222.413330078125 482.49261474609375 221.7866668701172 482.05926513671875 221.0399932861328 C 481.6192626953125 220.2933349609375 481.3992614746094 219.39334106445312 481.3992614746094 218.33999633789062 C 481.3992614746094 217.3800048828125 481.6292724609375 216.52999877929688 482.0892639160156 215.79000854492188 C 482.54925537109375 215.05667114257812 483.1859436035156 214.413330078125 483.999267578125 213.86000061035156 C 484.8125915527344 213.30667114257812 485.7825927734375 212.8433380126953 486.9092712402344 212.47000122070312 C 488.03594970703125 212.08999633789062 489.2626037597656 211.7866668701172 490.5892639160156 211.55999755859375 C 491.922607421875 211.3333282470703 493.3326110839844 211.1699981689453 494.81927490234375 211.07000732421875 C 496.3059387207031 210.97000122070312 497.8226013183594 210.9199981689453 499.3692626953125 210.9199981689453 C 500.595947265625 210.9199981689453 501.79925537109375 210.9566650390625 502.9792785644531 211.02999877929688 C 504.1592712402344 211.10333251953125 505.29925537109375 211.17999267578125 506.3992614746094 211.25999450683594 C 507.499267578125 211.34666442871094 508.5526123046875 211.42666625976562 509.55926513671875 211.5 C 510.5659484863281 211.57333374023438 511.519287109375 211.61000061035156 512.4192504882812 211.61000061035156 C 512.979248046875 211.61000061035156 513.4725952148438 211.60000610351562 513.8992919921875 211.5800018310547 C 514.3192749023438 211.55332946777344 514.729248046875 211.51666259765625 515.1292724609375 211.47000122070312 C 515.5225830078125 211.4166717529297 515.922607421875 211.34666442871094 516.3292846679688 211.25999450683594 C 516.7359619140625 211.1666717529297 517.2059326171875 211.05332946777344 517.7392578125 210.9199981689453 C 517.8526000976562 211.14666748046875 517.9592895507812 211.44000244140625 518.0592651367188 211.8000030517578 C 518.1593017578125 212.15333557128906 518.2526245117188 212.5433349609375 518.3392944335938 212.97000122070312 C 518.4259643554688 213.39666748046875 518.5059204101562 213.83999633789062 518.5792846679688 214.3000030517578 C 518.652587890625 214.75999450683594 518.7159423828125 215.20333862304688 518.769287109375 215.6300048828125 C 518.8226318359375 216.05667114257812 518.8626098632812 216.4566650390625 518.8892822265625 216.8300018310547 C 518.9159545898438 217.19667053222656 518.9292602539062 217.5 518.9292602539062 217.74000549316406 L 517.1593017578125 217.74000549316406 C 517.0125732421875 217.3333282470703 516.729248046875 216.92666625976562 516.3092651367188 216.52000427246094 C 515.8826293945312 216.1133270263672 515.3425903320312 215.72332763671875 514.6892700195312 215.35000610351562 C 514.029296875 214.97000122070312 513.2725830078125 214.6199951171875 512.4192504882812 214.3000030517578 C 511.55926513671875 213.97332763671875 510.6259460449219 213.69000244140625 509.6192626953125 213.4499969482422 C 508.6059265136719 213.20999145507812 507.5292663574219 213.02333068847656 506.3892822265625 212.88999938964844 C 505.2559509277344 212.7566680908203 504.0826110839844 212.69000244140625 502.8692626953125 212.69000244140625 C 502.1826171875 212.69000244140625 501.575927734375 212.75332641601562 501.04925537109375 212.8800048828125 C 500.5226135253906 213 500.075927734375 213.163330078125 499.7092590332031 213.3699951171875 C 499.34259033203125 213.57000732421875 499.0659484863281 213.80332946777344 498.8792724609375 214.07000732421875 C 498.6925964355469 214.336669921875 498.5992736816406 214.61000061035156 498.5992736816406 214.88999938964844 C 498.5992736816406 215.50999450683594 498.8059387207031 216.01333618164062 499.2192687988281 216.39999389648438 C 499.6392822265625 216.7933349609375 500.2092590332031 217.10665893554688 500.92926025390625 217.33999633789062 C 501.6492614746094 217.5800018310547 502.4859313964844 217.75999450683594 503.43927001953125 217.8800048828125 C 504.3926086425781 218.0066680908203 505.4092712402344 218.11666870117188 506.4892578125 218.2100067138672 C 507.56927490234375 218.30332946777344 508.6759338378906 218.40333557128906 509.80926513671875 218.50999450683594 C 510.9425964355469 218.61666870117188 512.0492553710938 218.76666259765625 513.1292724609375 218.9600067138672 C 514.2092895507812 219.14666748046875 515.2259521484375 219.40333557128906 516.1792602539062 219.72999572753906 C 517.1326293945312 220.05667114257812 517.96923828125 220.48333740234375 518.6892700195312 221.00999450683594 C 519.4093017578125 221.5433349609375 519.979248046875 222.20333862304688 520.3992919921875 222.99000549316406 C 520.8192749023438 223.77667236328125 521.029296875 224.72999572753906 521.029296875 225.85000610351562 C 521.029296875 226.8699951171875 520.7892456054688 227.75332641601562 520.3092651367188 228.5 C 519.8292846679688 229.24667358398438 519.16259765625 229.8800048828125 518.3092651367188 230.39999389648438 C 517.4559326171875 230.92666625976562 516.4525756835938 231.35000610351562 515.2992553710938 231.6699981689453 C 514.1392822265625 231.99667358398438 512.8859252929688 232.25 511.5392761230469 232.42999267578125 C 510.1925964355469 232.61000061035156 508.7792663574219 232.73333740234375 507.29925537109375 232.8000030517578 C 505.81927490234375 232.86000061035156 504.325927734375 232.88999938964844 502.81927490234375 232.88999938964844 C 501.4859313964844 232.88999938964844 500.2292785644531 232.85333251953125 499.04925537109375 232.77999877929688 C 497.8692626953125 232.7066650390625 496.7026062011719 232.6300048828125 495.54925537109375 232.5500030517578 C 494.3892822265625 232.4633331298828 493.2126159667969 232.38333129882812 492.0192565917969 232.30999755859375 C 490.825927734375 232.23666381835938 489.54925537109375 232.1999969482422 488.18927001953125 232.1999969482422 C 487.63592529296875 232.1999969482422 487.1492614746094 232.2100067138672 486.7292785644531 232.22999572753906 C 486.3026123046875 232.2566680908203 485.89593505859375 232.2933349609375 485.50927734375 232.33999633789062 C 485.1159362792969 232.39332580566406 484.7159423828125 232.46665954589844 484.30926513671875 232.55999755859375 C 483.902587890625 232.64666748046875 483.43927001953125 232.7566680908203 482.9192810058594 232.88999938964844 ZM 524.1996459960938 230.52999877929688 C 525.7596435546875 230.47666931152344 527.0563354492188 230.2933349609375 528.0896606445312 229.97999572753906 C 529.1229858398438 229.6666717529297 529.9462890625 229.1666717529297 530.5596313476562 228.47999572753906 C 531.1796264648438 227.7933349609375 531.6163330078125 226.8866729736328 531.86962890625 225.75999450683594 C 532.129638671875 224.63999938964844 532.2596435546875 223.23666381835938 532.2596435546875 221.5500030517578 C 532.2596435546875 220.41000366210938 532.1929931640625 219.413330078125 532.0596313476562 218.55999755859375 C 531.9263305664062 217.6999969482422 531.7229614257812 216.96665954589844 531.4496459960938 216.36000061035156 C 531.1696166992188 215.74667358398438 530.81298828125 215.24000549316406 530.379638671875 214.83999633789062 C 529.9529418945312 214.44000244140625 529.4396362304688 214.1233367919922 528.8396606445312 213.88999938964844 C 528.2462768554688 213.663330078125 527.56298828125 213.50332641601562 526.7896118164062 213.41000366210938 C 526.0162963867188 213.31666564941406 525.1529541015625 213.27000427246094 524.1996459960938 213.27000427246094 L 524.1996459960938 211.8000030517578 L 550.4996337890625 211.8000030517578 L 550.4996337890625 213.27000427246094 C 550.072998046875 213.27000427246094 549.7329711914062 213.3733367919922 549.4796142578125 213.5800018310547 C 549.226318359375 213.7866668701172 549.0263061523438 214.17666625976562 548.879638671875 214.75 C 548.7396240234375 215.32333374023438 548.6463012695312 216.1266632080078 548.599609375 217.16000366210938 C 548.552978515625 218.19332885742188 548.5296630859375 219.52999877929688 548.5296630859375 221.1699981689453 L 555.4496459960938 221.1699981689453 C 555.4496459960938 219.52999877929688 555.4229736328125 218.19332885742188 555.36962890625 217.16000366210938 C 555.3162841796875 216.1266632080078 555.2196655273438 215.32333374023438 555.0796508789062 214.75 C 554.9396362304688 214.17666625976562 554.7429809570312 213.7866668701172 554.4896240234375 213.5800018310547 C 554.2296142578125 213.3733367919922 553.8929443359375 213.27000427246094 553.4796142578125 213.27000427246094 L 553.4796142578125 211.8000030517578 L 579.7496337890625 211.8000030517578 L 579.7496337890625 213.27000427246094 C 578.322998046875 213.27000427246094 577.099609375 213.3766632080078 576.0796508789062 213.58999633789062 C 575.0662841796875 213.80999755859375 574.236328125 214.22666931152344 573.5896606445312 214.83999633789062 C 572.9429931640625 215.44667053222656 572.46630859375 216.2899932861328 572.15966796875 217.3699951171875 C 571.859619140625 218.44332885742188 571.7096557617188 219.836669921875 571.7096557617188 221.5500030517578 C 571.7096557617188 223.23666381835938 571.8363037109375 224.63999938964844 572.0896606445312 225.75999450683594 C 572.349609375 226.8866729736328 572.7863159179688 227.7933349609375 573.399658203125 228.47999572753906 C 574.0130004882812 229.1666717529297 574.8363037109375 229.6666717529297 575.86962890625 229.97999572753906 C 576.9029541015625 230.2933349609375 578.1962890625 230.47666931152344 579.7496337890625 230.52999877929688 L 579.7496337890625 232 L 553.4796142578125 232 L 553.4796142578125 230.52999877929688 C 553.726318359375 230.49000549316406 553.9596557617188 230.336669921875 554.1796264648438 230.07000732421875 C 554.399658203125 229.80332946777344 554.5963134765625 229.38333129882812 554.7696533203125 228.80999755859375 C 554.9429931640625 228.23666381835938 555.0863037109375 227.48666381835938 555.1996459960938 226.55999755859375 C 555.31298828125 225.63999938964844 555.3862915039062 224.5066680908203 555.4196166992188 223.16000366210938 L 548.5496215820312 223.16000366210938 C 548.5762939453125 224.5066680908203 548.649658203125 225.63999938964844 548.7696533203125 226.55999755859375 C 548.8829956054688 227.48666381835938 549.0263061523438 228.23666381835938 549.1996459960938 228.80999755859375 C 549.3729858398438 229.38333129882812 549.5696411132812 229.80332946777344 549.7896118164062 230.07000732421875 C 550.0162963867188 230.336669921875 550.2529907226562 230.49000549316406 550.4996337890625 230.52999877929688 L 550.4996337890625 232 L 524.1996459960938 232 L 524.1996459960938 230.52999877929688 ZM 582.9609985351562 221.91000366210938 C 582.9609985351562 220.3699951171875 583.2576293945312 219.03334045410156 583.8510131835938 217.89999389648438 C 584.4376220703125 216.75999450683594 585.2443237304688 215.7833251953125 586.27099609375 214.97000122070312 C 587.2976684570312 214.1566619873047 588.5143432617188 213.49000549316406 589.9209594726562 212.97000122070312 C 591.3209838867188 212.4499969482422 592.837646484375 212.0333251953125 594.4710083007812 211.72000122070312 C 596.09765625 211.413330078125 597.8043212890625 211.20333862304688 599.5910034179688 211.08999633789062 C 601.3843383789062 210.97666931152344 603.1776733398438 210.9199981689453 604.9710083007812 210.9199981689453 C 606.7643432617188 210.9199981689453 608.5543212890625 210.97666931152344 610.3410034179688 211.08999633789062 C 612.1343383789062 211.20333862304688 613.84765625 211.413330078125 615.48095703125 211.72000122070312 C 617.1143188476562 212.0333251953125 618.6309814453125 212.4499969482422 620.031005859375 212.97000122070312 C 621.4376220703125 213.49000549316406 622.654296875 214.1566619873047 623.6809692382812 214.97000122070312 C 624.7076416015625 215.7833251953125 625.5143432617188 216.75999450683594 626.1009521484375 217.89999389648438 C 626.6943359375 219.03334045410156 626.990966796875 220.3699951171875 626.990966796875 221.91000366210938 C 626.990966796875 223.44332885742188 626.6943359375 224.77667236328125 626.1009521484375 225.91000366210938 C 625.5143432617188 227.0500030517578 624.7076416015625 228.02667236328125 623.6809692382812 228.83999633789062 C 622.654296875 229.65333557128906 621.4376220703125 230.32000732421875 620.031005859375 230.83999633789062 C 618.6309814453125 231.36000061035156 617.1143188476562 231.77667236328125 615.48095703125 232.08999633789062 C 613.84765625 232.39666748046875 612.1343383789062 232.60667419433594 610.3410034179688 232.72000122070312 C 608.5543212890625 232.8333282470703 606.7643432617188 232.88999938964844 604.9710083007812 232.88999938964844 C 603.1776733398438 232.88999938964844 601.3843383789062 232.8333282470703 599.5910034179688 232.72000122070312 C 597.8043212890625 232.60667419433594 596.09765625 232.39666748046875 594.4710083007812 232.08999633789062 C 592.837646484375 231.77667236328125 591.3209838867188 231.36000061035156 589.9209594726562 230.83999633789062 C 588.5143432617188 230.32000732421875 587.2976684570312 229.65333557128906 586.27099609375 228.83999633789062 C 585.2443237304688 228.02667236328125 584.4376220703125 227.0500030517578 583.8510131835938 225.91000366210938 C 583.2576293945312 224.77667236328125 582.9609985351562 223.44332885742188 582.9609985351562 221.91000366210938 M 601.2009887695312 221.91000366210938 C 601.2009887695312 223.22332763671875 601.2476806640625 224.44332885742188 601.3410034179688 225.57000732421875 C 601.4409790039062 226.69667053222656 601.6276245117188 227.6699981689453 601.9010009765625 228.49000549316406 C 602.17431640625 229.30999755859375 602.5509643554688 229.95333862304688 603.031005859375 230.4199981689453 C 603.510986328125 230.8866729736328 604.1309814453125 231.1199951171875 604.8909912109375 231.1199951171875 C 605.6510009765625 231.1199951171875 606.281005859375 230.8866729736328 606.781005859375 230.4199981689453 C 607.2742919921875 229.95333862304688 607.6676635742188 229.30999755859375 607.9609985351562 228.49000549316406 C 608.2543334960938 227.6699981689453 608.4609985351562 226.69667053222656 608.5809936523438 225.57000732421875 C 608.7009887695312 224.44332885742188 608.760986328125 223.22332763671875 608.760986328125 221.91000366210938 C 608.760986328125 220.58999633789062 608.7009887695312 219.36666870117188 608.5809936523438 218.24000549316406 C 608.4609985351562 217.1133270263672 608.2543334960938 216.13999938964844 607.9609985351562 215.32000732421875 C 607.6676635742188 214.4933319091797 607.2742919921875 213.84666442871094 606.781005859375 213.3800048828125 C 606.281005859375 212.9199981689453 605.6510009765625 212.69000244140625 604.8909912109375 212.69000244140625 C 604.3776245117188 212.69000244140625 603.9309692382812 212.80999755859375 603.5509643554688 213.0500030517578 C 603.1709594726562 213.29000854492188 602.8442993164062 213.6199951171875 602.5709838867188 214.04000854492188 C 602.3043212890625 214.45999145507812 602.0809936523438 214.9633331298828 601.9010009765625 215.5500030517578 C 601.7210083007812 216.1366729736328 601.5809936523438 216.77000427246094 601.48095703125 217.4499969482422 C 601.3743286132812 218.1366729736328 601.3009643554688 218.85665893554688 601.260986328125 219.61000061035156 C 601.2210083007812 220.3699951171875 601.2009887695312 221.1366729736328 601.2009887695312 221.91000366210938 ZM 630.199951171875 230.52999877929688 C 631.7599487304688 230.47666931152344 633.056640625 230.2933349609375 634.0899658203125 229.97999572753906 C 635.123291015625 229.6666717529297 635.9465942382812 229.1666717529297 636.5599365234375 228.47999572753906 C 637.179931640625 227.7933349609375 637.6166381835938 226.8866729736328 637.8699340820312 225.75999450683594 C 638.1299438476562 224.63999938964844 638.2599487304688 223.23666381835938 638.2599487304688 221.5500030517578 C 638.2599487304688 220.41000366210938 638.1932983398438 219.413330078125 638.0599365234375 218.55999755859375 C 637.9266357421875 217.6999969482422 637.7232666015625 216.96665954589844 637.449951171875 216.36000061035156 C 637.169921875 215.74667358398438 636.8132934570312 215.24000549316406 636.3799438476562 214.83999633789062 C 635.9532470703125 214.44000244140625 635.43994140625 214.1233367919922 634.8399658203125 213.88999938964844 C 634.24658203125 213.663330078125 633.5632934570312 213.50332641601562 632.7899169921875 213.41000366210938 C 632.0166015625 213.31666564941406 631.1532592773438 213.27000427246094 630.199951171875 213.27000427246094 L 630.199951171875 211.8000030517578 L 655.5499267578125 211.8000030517578 C 659.4632568359375 211.8000030517578 662.8165893554688 211.88999938964844 665.6099243164062 212.07000732421875 C 668.409912109375 212.25 670.7032470703125 212.59666442871094 672.4899291992188 213.11000061035156 C 674.276611328125 213.6233367919922 675.5899658203125 214.336669921875 676.429931640625 215.25 C 677.2699584960938 216.163330078125 677.68994140625 217.35000610351562 677.68994140625 218.80999755859375 C 677.68994140625 219.72332763671875 677.5399169921875 220.52333068847656 677.2399291992188 221.2100067138672 C 676.93994140625 221.88999938964844 676.5166015625 222.47332763671875 675.969970703125 222.9600067138672 C 675.4166259765625 223.44667053222656 674.756591796875 223.84666442871094 673.9899291992188 224.16000366210938 C 673.2232666015625 224.47332763671875 672.3799438476562 224.72000122070312 671.4599609375 224.89999389648438 C 670.5332641601562 225.086669921875 669.546630859375 225.2133331298828 668.4999389648438 225.27999877929688 C 667.4532470703125 225.34666442871094 666.3666381835938 225.3800048828125 665.2399291992188 225.3800048828125 C 664.28662109375 225.3800048828125 663.36328125 225.3633270263672 662.469970703125 225.3300018310547 C 661.583251953125 225.2899932861328 660.7099609375 225.24667358398438 659.8499145507812 225.1999969482422 C 658.99658203125 225.15333557128906 658.1466064453125 225.11000061035156 657.2999267578125 225.07000732421875 C 656.4532470703125 225.02333068847656 655.603271484375 224.99000549316406 654.7499389648438 224.97000122070312 C 654.9166259765625 225.98333740234375 655.199951171875 226.8333282470703 655.5999145507812 227.52000427246094 C 655.9932861328125 228.1999969482422 656.5532836914062 228.75332641601562 657.2799682617188 229.17999267578125 C 658.006591796875 229.60665893554688 658.9132690429688 229.92666625976562 659.9999389648438 230.13999938964844 C 661.09326171875 230.34666442871094 662.419921875 230.47666931152344 663.9799194335938 230.52999877929688 L 663.9799194335938 232 L 630.199951171875 232 L 630.199951171875 230.52999877929688 M 654.5599365234375 223.02999877929688 C 655.4932861328125 222.97000122070312 656.3466186523438 222.8433380126953 657.1199340820312 222.64999389648438 C 657.8999633789062 222.4566650390625 658.5699462890625 222.17333984375 659.1299438476562 221.8000030517578 C 659.6832885742188 221.43333435058594 660.11328125 220.96665954589844 660.419921875 220.39999389648438 C 660.7332763671875 219.83999633789062 660.8899536132812 219.15333557128906 660.8899536132812 218.33999633789062 C 660.8899536132812 217.44000244140625 660.7432861328125 216.6999969482422 660.449951171875 216.1199951171875 C 660.1566162109375 215.54000854492188 659.7366333007812 215.07666015625 659.18994140625 214.72999572753906 C 658.6432495117188 214.38333129882812 657.9732666015625 214.13333129882812 657.179931640625 213.97999572753906 C 656.3932495117188 213.82666015625 655.5099487304688 213.72999572753906 654.5299682617188 213.69000244140625 L 654.5299682617188 221.5500030517578 C 654.5299682617188 221.81666564941406 654.5299682617188 222.07000732421875 654.5299682617188 222.30999755859375 C 654.5299682617188 222.5500030517578 654.5399169921875 222.7899932861328 654.5599365234375 223.02999877929688 Z" transform="matrix(1.033887267112732, 0, 0, 1.033887267112732, -204.6602783203125, 37.459075927734375)" style="fill: rgb(51, 51, 51); white-space: pre; color: rgb(51, 51, 51);"/><g transform="matrix(0.3356245458126068, 0, 0, 0.3356245458126068, 49.55778065415382, 18.43608561365801)"><g transform="matrix(1, 0, 0, 1, 0, 0)"><path class="st1" d="M758,754.6c-79.7,0-144.3-64.6-144.3-144.3c0-27.4,7.6-53,20.9-74.8c-56.9,19.3-97.9,73.2-97.9,136.6&#10;&#9;&#9;&#9;c0,79.7,64.6,144.3,144.3,144.3c52.3,0,98.1-27.8,123.4-69.5C789.8,751.9,774.2,754.6,758,754.6z" style="fill: rgb(251, 209, 8);" transform="matrix(1, 0, 0, 1, 0, 0)"/><path d="M 651.599976 743.799988 A 26 26 0 0 1 625.599976 769.799988 A 26 26 0 0 1 599.599976 743.799988 A 26 26 0 0 1 625.599976 717.799988 A 26 26 0 0 1 651.599976 743.799988 Z" class="st4" style="fill: rgb(236, 182, 30);" transform="matrix(1, 0, 0, 1, 0, 0)"/><path d="M 672.200025 778.5 A 10.8 10.8 0 0 1 661.400024 789.3 A 10.8 10.8 0 0 1 650.600024 778.5 A 10.8 10.8 0 0 1 661.400024 767.7 A 10.8 10.8 0 0 1 672.200025 778.5 Z" class="st4" style="fill: rgb(236, 182, 30);" transform="matrix(1, 0, 0, 1, 0, 0)"/><path d="M 740.6 779.599976 A 7.6 7.6 0 0 1 733 787.199975 A 7.6 7.6 0 0 1 725.4 779.599976 A 7.6 7.6 0 0 1 733 771.999976 A 7.6 7.6 0 0 1 740.6 779.599976 Z" class="st4" style="fill: rgb(236, 182, 30);" transform="matrix(1, 0, 0, 1, 0, 0)"/><path d="M 598.500025 614.700012 A 14.1 14.1 0 0 1 584.400024 628.800013 A 14.1 14.1 0 0 1 570.300024 614.700012 A 14.1 14.1 0 0 1 584.400024 600.600012 A 14.1 14.1 0 0 1 598.500025 614.700012 Z" class="st4" style="fill: rgb(236, 182, 30);" transform="matrix(1, 0, 0, 1, 0, 0)"/><path class="st1" d="M694.1,621.6l5.4,16.7c0.8,2.4,3,4,5.5,4h17.6c5.6,0,8,7.2,3.4,10.5l-14.2,10.3c-2,1.5-2.9,4.1-2.1,6.5&#10;&#9;&#9;&#9;l5.4,16.7c1.7,5.4-4.4,9.8-8.9,6.5L692,682.5c-2-1.5-4.8-1.5-6.8,0l-14.2,10.3c-4.6,3.3-10.7-1.1-8.9-6.5l5.4-16.7&#10;&#9;&#9;&#9;c0.8-2.4-0.1-5-2.1-6.5l-14.2-10.3c-4.6-3.3-2.2-10.5,3.4-10.5h17.6c2.5,0,4.7-1.6,5.5-4l5.4-16.7&#10;&#9;&#9;&#9;C684.8,616.2,692.4,616.2,694.1,621.6z" style="fill: rgb(251, 209, 8);" transform="matrix(1, 0, 0, 1, 0, 0)"/><path class="st1" d="M754.1,581.5l4,12.4c0.6,1.8,2.2,3,4.1,3h13.1c4.2,0,5.9,5.4,2.5,7.8l-10.6,7.7c-1.5,1.1-2.2,3.1-1.6,4.8&#10;&#9;&#9;&#9;l4,12.4c1.3,4-3.3,7.3-6.7,4.8l-10.6-7.7c-1.5-1.1-3.6-1.1-5.1,0l-10.6,7.7c-3.4,2.5-8-0.9-6.7-4.8l4-12.4&#10;&#9;&#9;&#9;c0.6-1.8-0.1-3.7-1.6-4.8l-10.6-7.7c-3.4-2.5-1.6-7.8,2.5-7.8h13.1c1.9,0,3.5-1.2,4.1-3l4-12.4&#10;&#9;&#9;&#9;C747.2,577.5,752.8,577.5,754.1,581.5z" style="fill: rgb(251, 209, 8);" transform="matrix(1, 0, 0, 1, 0, 0)"/></g></g></svg>